<?xml version="1.0" encoding="UTF-8" standalone="no"?>
<!DOCTYPE svg PUBLIC "-//W3C//DTD SVG 1.1//EN" "http://www.w3.org/Graphics/SVG/1.1/DTD/svg11.dtd">
<!-- Generated by Microsoft Visio, SVG Export sr3_fw_arch.svg Page-1 -->
<svg xmlns="http://www.w3.org/2000/svg" xmlns:xlink="http://www.w3.org/1999/xlink" xmlns:ev="http://www.w3.org/2001/xml-events"
		width="6.70291in" height="5.30442in" viewBox="0 0 482.61 381.918" xml:space="preserve" color-interpolation-filters="sRGB"
		class="st10">
	<style type="text/css">
	<![CDATA[
		.st1 {fill:#b6bfc9;stroke:#b6bfc9;stroke-linecap:round;stroke-linejoin:round;stroke-width:0.72}
		.st2 {fill:#000000;font-family:Myriad Web Pro;font-size:0.833336em}
		.st3 {fill:#e9e9e1;stroke:#e9e9e1;stroke-linecap:round;stroke-linejoin:round;stroke-width:0.72}
		.st4 {fill:#c4dbf2;stroke:#b7d2ee;stroke-linecap:round;stroke-linejoin:round;stroke-width:0.72}
		.st5 {font-size:1em}
		.st6 {marker-end:url(#mrkr2-74);marker-start:url(#mrkr2-72);stroke:#000000;stroke-linecap:round;stroke-linejoin:round;stroke-width:0.75}
		.st7 {fill:#000000;fill-opacity:1;stroke:#000000;stroke-opacity:1;stroke-width:0.22935779816514}
		.st8 {marker-end:url(#mrkr2-74);stroke:#000000;stroke-linecap:round;stroke-linejoin:round;stroke-width:0.75}
		.st9 {marker-start:url(#mrkr2-72);stroke:#000000;stroke-linecap:round;stroke-linejoin:round;stroke-width:0.75}
		.st10 {fill:none;fill-rule:evenodd;font-size:12px;overflow:visible;stroke-linecap:square;stroke-miterlimit:3}
	]]>
	</style>

	<defs id="Markers">
		<g id="lend2">
			<path d="M 1 1 L 0 0 L 1 -1 L 1 1 " style="stroke:none"/>
		</g>
		<marker id="mrkr2-72" class="st7" refX="3.88" orient="auto" markerUnits="strokeWidth" overflow="visible">
			<use xlink:href="#lend2" transform="scale(4.36) "/>
		</marker>
		<marker id="mrkr2-74" class="st7" refX="-4.36" orient="auto" markerUnits="strokeWidth" overflow="visible">
			<use xlink:href="#lend2" transform="scale(-4.36,-4.36) "/>
		</marker>
	</defs>
	<g>
		<title>Page-1</title>
		<g id="shape13-1" transform="translate(0.36,-347.542)">
			<title>Box.13</title>
			<desc>S110 SoftDevice</desc>
			<rect x="0" y="347.902" width="481.89" height="34.0157" rx="5.66929" ry="5.66929" class="st1"/>
			<text x="206" y="367.91" class="st2">S110 SoftDevice</text>		</g>
		<g id="shape14-4" transform="translate(0.36,-307.857)">
			<title>Box.14</title>
			<desc>Communication Layer</desc>
			<rect x="0" y="357.188" width="481.89" height="24.7298" rx="5.66929" ry="5.66929" class="st3"/>
			<text x="193.29" y="372.55" class="st2">Communication Layer</text>		</g>
		<g id="shape15-7" transform="translate(0.36,-264.241)">
			<title>Box.15</title>
			<desc>Audio Module</desc>
			<rect x="0" y="357.188" width="155.906" height="24.7298" rx="5.66929" ry="5.66929" class="st4"/>
			<text x="47.25" y="372.55" class="st2">Audio Module</text>		</g>
		<g id="shape16-10" transform="translate(170.439,-264.241)">
			<title>Box.16</title>
			<desc>Data Handler</desc>
			<rect x="0" y="357.188" width="311.811" height="24.7298" rx="5.66929" ry="5.66929" class="st4"/>
			<text x="127.47" y="372.55" class="st2">Data Handler</text>		</g>
		<g id="shape17-13" transform="translate(0.36,-195.564)">
			<title>Box.17</title>
			<desc>Audio Driver (DSP + ADPCM)</desc>
			<rect x="0" y="331.913" width="155.906" height="50.0057" rx="5.66929" ry="5.66929" class="st4"/>
			<text x="50.67" y="353.92" class="st2">Audio Driver <tspan x="44.52" dy="1.2em" class="st5">(</tspan>DSP + ADPCM)</text>		</g>
		<g id="shape20-17" transform="translate(170.145,-195.564)">
			<title>Box.20</title>
			<desc>Keyboard Module</desc>
			<rect x="0" y="331.913" width="74.154" height="50.0057" rx="5.66929" ry="5.66929" class="st4"/>
			<text x="16.3" y="353.92" class="st2">Keyboard <tspan x="20.49" dy="1.2em" class="st5">Module</tspan></text>		</g>
		<g id="shape22-21" transform="translate(248.473,-195.564)">
			<title>Box.22</title>
			<desc>Touchpad Module</desc>
			<rect x="0" y="331.913" width="74.154" height="50.0057" rx="5.66929" ry="5.66929" class="st4"/>
			<text x="15.22" y="353.92" class="st2">Touchpad <tspan x="20.49" dy="1.2em" class="st5">Module</tspan></text>		</g>
		<g id="shape23-25" transform="translate(328.779,-195.564)">
			<title>Box.23</title>
			<desc>Gyroscope Module</desc>
			<rect x="0" y="331.913" width="74.154" height="50.0057" rx="5.66929" ry="5.66929" class="st4"/>
			<text x="13.94" y="353.92" class="st2">Gyroscope <tspan x="20.49" dy="1.2em" class="st5">Module</tspan></text>		</g>
		<g id="shape24-29" transform="translate(408.096,-195.564)">
			<title>Box.24</title>
			<desc>… Module</desc>
			<rect x="0" y="331.913" width="74.154" height="50.0057" rx="5.66929" ry="5.66929" class="st4"/>
			<text x="32.08" y="353.92" class="st2">…<tspan x="19.4" dy="1.2em" class="st5"> </tspan>Module</text>		</g>
		<g id="shape25-33" transform="translate(0.36,-96.4915)">
			<title>Box.25</title>
			<desc>I2S Interface</desc>
			<rect x="0" y="301.451" width="74.154" height="80.4668" rx="5.66929" ry="5.66929" class="st4"/>
			<text x="30.63" y="338.68" class="st2">I2S <tspan x="18.04" dy="1.2em" class="st5">Interface</tspan></text>		</g>
		<g id="shape27-37" transform="translate(82.1115,-143.621)">
			<title>Box.27</title>
			<desc>Codec Driver</desc>
			<rect x="0" y="348.581" width="74.154" height="33.3371" rx="5.66929" ry="5.66929" class="st4"/>
			<text x="23.36" y="362.25" class="st2">Codec<tspan x="23.9" dy="1.2em" class="st5">Driver</tspan></text>		</g>
		<g id="shape28-41" transform="translate(170.145,-143.621)">
			<title>Box.28</title>
			<desc>Keyboard Driver</desc>
			<rect x="0" y="348.581" width="74.154" height="33.3371" rx="5.66929" ry="5.66929" class="st4"/>
			<text x="16.3" y="362.25" class="st2">Keyboard <tspan x="23.9" dy="1.2em" class="st5">Driver</tspan></text>		</g>
		<g id="shape29-45" transform="translate(248.473,-143.621)">
			<title>Box.29</title>
			<desc>Touchpad Driver</desc>
			<rect x="0" y="348.581" width="74.154" height="33.3371" rx="5.66929" ry="5.66929" class="st4"/>
			<text x="15.22" y="362.25" class="st2">Touchpad <tspan x="23.9" dy="1.2em" class="st5">Driver</tspan></text>		</g>
		<g id="shape30-49" transform="translate(328.779,-143.621)">
			<title>Box.30</title>
			<desc>Gyroscope Driver</desc>
			<rect x="0" y="348.581" width="74.154" height="33.3371" rx="5.66929" ry="5.66929" class="st4"/>
			<text x="13.94" y="362.25" class="st2">Gyroscope <tspan x="23.9" dy="1.2em" class="st5">Driver</tspan></text>		</g>
		<g id="shape31-53" transform="translate(408.096,-143.621)">
			<title>Box.31</title>
			<desc>... Driver</desc>
			<rect x="0" y="348.581" width="74.154" height="33.3371" rx="5.66929" ry="5.66929" class="st4"/>
			<text x="33.9" y="362.25" class="st2">...<tspan x="23.9" dy="1.2em" class="st5">Driver</tspan></text>		</g>
		<g id="shape32-57" transform="translate(81.1474,-96.4915)">
			<title>Box.32</title>
			<desc>TWI Transaction Scheduler</desc>
			<rect x="0" y="355.237" width="401.102" height="26.6816" rx="5.66929" ry="5.66929" class="st4"/>
			<text x="143.4" y="371.58" class="st2">TWI Transaction Scheduler</text>		</g>
		<g id="shape34-60" transform="translate(0.36,-53.262)">
			<title>Box.34</title>
			<desc>HAL and Low-Level Drivers</desc>
			<rect x="0" y="357.188" width="481.89" height="24.7298" rx="5.66929" ry="5.66929" class="st3"/>
			<text x="183.15" y="372.55" class="st2">HAL and Low-Level Drivers</text>		</g>
		<g id="shape35-63" transform="translate(0.36,-0.36)">
			<title>Box.35</title>
			<desc>nRF5x</desc>
			<rect x="0" y="347.902" width="481.89" height="34.0157" rx="5.66929" ry="5.66929" class="st1"/>
			<text x="227.69" y="367.91" class="st2">nRF5x</text>		</g>
		<g id="shape36-66" transform="translate(234.218,-347.542)">
			<title>Dynamic connector</title>
			<path d="M7.09 384.83 L7.09 385.19 L7.09 393.6" class="st6"/>
		</g>
		<g id="shape37-75" transform="translate(319.258,-288.971)">
			<title>Dynamic connector.37</title>
			<path d="M7.09 381.92 L7.09 366.56" class="st8"/>
		</g>
		<g id="shape38-80" transform="translate(71.2261,-288.971)">
			<title>Dynamic connector.38</title>
			<path d="M7.09 381.92 L7.09 367.18" class="st8"/>
		</g>
		<g id="shape39-85" transform="translate(71.5343,-246.23)">
			<title>Dynamic connector.39</title>
			<path d="M7.09 381.92 L7.09 367.18" class="st8"/>
		</g>
		<g id="shape41-90" transform="translate(438.19,-246.094)">
			<title>Dynamic connector.41</title>
			<path d="M7.09 381.92 L7.09 367.18" class="st8"/>
		</g>
		<g id="shape42-95" transform="translate(359.929,-246.235)">
			<title>Dynamic connector.42</title>
			<path d="M7.09 381.92 L7.09 367.18" class="st8"/>
		</g>
		<g id="shape43-100" transform="translate(279.203,-245.961)">
			<title>Dynamic connector.43</title>
			<path d="M7.09 381.92 L7.09 367.18" class="st8"/>
		</g>
		<g id="shape44-105" transform="translate(199.093,-246.235)">
			<title>Dynamic connector.44</title>
			<path d="M7.09 381.92 L7.09 367.18" class="st8"/>
		</g>
		<g id="shape45-110" transform="translate(49.9663,-176.958)">
			<title>Dynamic connector.45</title>
			<path d="M7.09 381.92 L7.09 367.18" class="st8"/>
		</g>
		<g id="shape46-115" transform="translate(219.377,-177.217)">
			<title>Dynamic connector.46</title>
			<path d="M7.09 381.92 L7.09 367.18" class="st8"/>
		</g>
		<g id="shape47-120" transform="translate(135.006,-176.601)">
			<title>Dynamic connector.47</title>
			<path d="M7.09 381.92 L7.09 367.18" class="st8"/>
		</g>
		<g id="shape48-125" transform="translate(298.306,-176.601)">
			<title>Dynamic connector.48</title>
			<path d="M7.09 381.92 L7.09 367.18" class="st8"/>
		</g>
		<g id="shape49-130" transform="translate(376.567,-176.601)">
			<title>Dynamic connector.49</title>
			<path d="M7.09 381.92 L7.09 367.18" class="st8"/>
		</g>
		<g id="shape50-135" transform="translate(457.909,-176.601)">
			<title>Dynamic connector.50</title>
			<path d="M7.09 381.92 L7.09 367.18" class="st8"/>
		</g>
		<g id="shape51-140" transform="translate(10.5278,-176.601)">
			<title>Dynamic connector.51</title>
			<path d="M7.09 379.01 L7.09 378.65 L7.09 363.91" class="st9"/>
		</g>
		<g id="shape53-145" transform="translate(92.486,-176.601)">
			<title>Dynamic connector.53</title>
			<path d="M7.09 379.01 L7.09 378.65 L7.09 363.91" class="st9"/>
		</g>
		<g id="shape54-150" transform="translate(180.606,-177.217)">
			<title>Dynamic connector.54</title>
			<path d="M7.09 379.01 L7.09 378.65 L7.09 363.91" class="st9"/>
		</g>
		<g id="shape55-155" transform="translate(262.565,-176.601)">
			<title>Dynamic connector.55</title>
			<path d="M7.09 379.01 L7.09 378.65 L7.09 363.91" class="st9"/>
		</g>
		<g id="shape56-160" transform="translate(337.128,-176.601)">
			<title>Dynamic connector.56</title>
			<path d="M7.09 379.01 L7.09 378.65 L7.09 363.91" class="st9"/>
		</g>
		<g id="shape57-165" transform="translate(422.168,-177.217)">
			<title>Dynamic connector.57</title>
			<path d="M7.09 379.01 L7.09 378.65 L7.09 363.91" class="st9"/>
		</g>
		<g id="shape58-170" transform="translate(112.821,-124.838)">
			<title>Dynamic connector.58</title>
			<path d="M7.09 379.01 L7.09 378.65 L7.09 367.18" class="st6"/>
		</g>
		<g id="shape60-177" transform="translate(200.942,-124.222)">
			<title>Dynamic connector.60</title>
			<path d="M7.09 379.01 L7.09 378.65 L7.09 367.18" class="st6"/>
		</g>
		<g id="shape61-184" transform="translate(277.97,-124.838)">
			<title>Dynamic connector.61</title>
			<path d="M7.09 379.01 L7.09 378.65 L7.09 367.18" class="st6"/>
		</g>
		<g id="shape62-191" transform="translate(359.004,-125.125)">
			<title>Dynamic connector.62</title>
			<path d="M7.09 379.01 L7.09 378.65 L7.09 367.18" class="st6"/>
		</g>
		<g id="shape63-198" transform="translate(438.806,-124.509)">
			<title>Dynamic connector.63</title>
			<path d="M7.09 379.01 L7.09 378.65 L7.09 367.18" class="st6"/>
		</g>
		<g id="shape64-205" transform="translate(274.273,-79.1436)">
			<title>Dynamic connector.64</title>
			<path d="M7.09 379.01 L7.09 378.65 L7.09 367.18" class="st6"/>
		</g>
		<g id="shape65-212" transform="translate(234.834,-34.9032)">
			<title>Dynamic connector.65</title>
			<path d="M7.09 379.01 L7.09 378.65 L7.09 367.18" class="st6"/>
		</g>
		<g id="shape66-219" transform="translate(29.6308,-78.5274)">
			<title>Dynamic connector.66</title>
			<path d="M7.09 379.01 L7.09 378.65 L7.09 367.18" class="st6"/>
		</g>
	</g>
</svg>
