<?xml version="1.0" encoding="UTF-8" standalone="no"?>
<!DOCTYPE svg PUBLIC "-//W3C//DTD SVG 1.1//EN" "http://www.w3.org/Graphics/SVG/1.1/DTD/svg11.dtd">
<!-- Generated by Microsoft Visio, SVG Export sirc_modulation.svg Page-1 -->
<svg xmlns="http://www.w3.org/2000/svg" xmlns:xlink="http://www.w3.org/1999/xlink" xmlns:ev="http://www.w3.org/2001/xml-events"
		width="7.86075in" height="2.14406in" viewBox="0 0 565.974 154.372" xml:space="preserve" color-interpolation-filters="sRGB"
		class="st9">
	<style type="text/css">
	<![CDATA[
		.st1 {stroke:#000000;stroke-linecap:round;stroke-linejoin:round;stroke-width:0.75}
		.st2 {stroke:#000000;stroke-linecap:round;stroke-linejoin:round;stroke-width:1}
		.st3 {marker-end:url(#mrkr13-171);marker-start:url(#mrkr13-169);stroke:#000000;stroke-linecap:round;stroke-linejoin:round;stroke-width:0.75}
		.st4 {fill:#000000;fill-opacity:1;stroke:#000000;stroke-opacity:1;stroke-width:0.22935779816514}
		.st5 {fill:#ffffff;stroke:none;stroke-linecap:butt;stroke-width:7.2}
		.st6 {fill:#000000;font-family:Arial;font-size:1.00001em}
		.st7 {fill:#ffffff;font-size:1em}
		.st8 {stroke:#000000;stroke-dasharray:0.75,1.5;stroke-linecap:round;stroke-linejoin:round;stroke-width:0.75}
		.st9 {fill:none;fill-rule:evenodd;font-size:12px;overflow:visible;stroke-linecap:square;stroke-miterlimit:3}
	]]>
	</style>

	<defs id="Markers">
		<g id="lend13">
			<path d="M 3 1 L 0 0 L 3 -1 L 3 1 " style="stroke:none"/>
		</g>
		<marker id="mrkr13-169" class="st4" refX="12.6" orient="auto" markerUnits="strokeWidth" overflow="visible">
			<use xlink:href="#lend13" transform="scale(4.36) "/>
		</marker>
		<marker id="mrkr13-171" class="st4" refX="-13.08" orient="auto" markerUnits="strokeWidth" overflow="visible">
			<use xlink:href="#lend13" transform="scale(-4.36,-4.36) "/>
		</marker>
	</defs>
	<g>
		<title>Page-1</title>
		<g id="group189-1" transform="translate(15.8159,-4.11524)">
			<title>Sheet.189</title>
			<g id="shape42-2" transform="translate(2.83465,-14.1732)">
				<title>Line1</title>
				<path d="M0 147.29 L544.25 147.29" class="st1"/>
			</g>
			<g id="group43-5" transform="translate(255.118,-21.2598)">
				<title>Sheet.43</title>
				<g id="group44-6">
					<title>Sheet.44</title>
					<g id="group45-7">
						<title>Sheet.45</title>
						<g id="shape46-8" transform="translate(11.3491,-97.5857)">
							<title>Line1</title>
							<path d="M7.09 154.37 L7.09 251.96" class="st2"/>
						</g>
						<g id="shape47-11" transform="translate(176.495,56.7864) rotate(90)">
							<title>Sheet.47</title>
							<path d="M0 154.37 L97.59 154.37" class="st2"/>
						</g>
						<g id="shape48-14" transform="translate(169.121,56.7864) rotate(90)">
							<title>Sheet.48</title>
							<path d="M0 154.37 L97.59 154.37" class="st2"/>
						</g>
						<g id="shape49-17" transform="translate(22.4105,-97.5857)">
							<title>Line1.14</title>
							<path d="M7.09 154.37 L7.09 251.96" class="st2"/>
						</g>
						<g id="shape50-20" transform="translate(187.556,56.7864) rotate(90)">
							<title>Sheet.50</title>
							<path d="M0 154.37 L97.59 154.37" class="st2"/>
						</g>
						<g id="shape51-23" transform="translate(180.182,56.7864) rotate(90)">
							<title>Sheet.51</title>
							<path d="M0 154.37 L97.59 154.37" class="st2"/>
						</g>
					</g>
					<g id="group52-26" transform="translate(21.7542,0)">
						<title>Sheet.52</title>
						<g id="shape53-27" transform="translate(11.3491,-97.5857)">
							<title>Line1</title>
							<path d="M7.09 154.37 L7.09 251.96" class="st2"/>
						</g>
						<g id="shape54-30" transform="translate(176.495,56.7864) rotate(90)">
							<title>Sheet.54</title>
							<path d="M0 154.37 L97.59 154.37" class="st2"/>
						</g>
						<g id="shape55-33" transform="translate(169.121,56.7864) rotate(90)">
							<title>Sheet.55</title>
							<path d="M0 154.37 L97.59 154.37" class="st2"/>
						</g>
						<g id="shape56-36" transform="translate(22.4105,-97.5857)">
							<title>Line1.14</title>
							<path d="M7.09 154.37 L7.09 251.96" class="st2"/>
						</g>
						<g id="shape57-39" transform="translate(187.556,56.7864) rotate(90)">
							<title>Sheet.57</title>
							<path d="M0 154.37 L97.59 154.37" class="st2"/>
						</g>
						<g id="shape58-42" transform="translate(180.182,56.7864) rotate(90)">
							<title>Sheet.58</title>
							<path d="M0 154.37 L97.59 154.37" class="st2"/>
						</g>
					</g>
				</g>
				<g id="group59-45" transform="translate(43.6988,-2.84217E-014)">
					<title>Sheet.59</title>
					<g id="group60-46">
						<title>Sheet.60</title>
						<g id="shape61-47" transform="translate(11.3491,-97.5857)">
							<title>Line1</title>
							<path d="M7.09 154.37 L7.09 251.96" class="st2"/>
						</g>
						<g id="shape62-50" transform="translate(176.495,56.7864) rotate(90)">
							<title>Sheet.62</title>
							<path d="M0 154.37 L97.59 154.37" class="st2"/>
						</g>
						<g id="shape63-53" transform="translate(169.121,56.7864) rotate(90)">
							<title>Sheet.63</title>
							<path d="M0 154.37 L97.59 154.37" class="st2"/>
						</g>
						<g id="shape64-56" transform="translate(22.4105,-97.5857)">
							<title>Line1.14</title>
							<path d="M7.09 154.37 L7.09 251.96" class="st2"/>
						</g>
						<g id="shape65-59" transform="translate(187.556,56.7864) rotate(90)">
							<title>Sheet.65</title>
							<path d="M0 154.37 L97.59 154.37" class="st2"/>
						</g>
						<g id="shape66-62" transform="translate(180.182,56.7864) rotate(90)">
							<title>Sheet.66</title>
							<path d="M0 154.37 L97.59 154.37" class="st2"/>
						</g>
					</g>
					<g id="group67-65" transform="translate(21.7542,0)">
						<title>Sheet.67</title>
						<g id="shape68-66" transform="translate(11.3491,-97.5857)">
							<title>Line1</title>
							<path d="M7.09 154.37 L7.09 251.96" class="st2"/>
						</g>
						<g id="shape69-69" transform="translate(176.495,56.7864) rotate(90)">
							<title>Sheet.69</title>
							<path d="M0 154.37 L97.59 154.37" class="st2"/>
						</g>
						<g id="shape70-72" transform="translate(169.121,56.7864) rotate(90)">
							<title>Sheet.70</title>
							<path d="M0 154.37 L97.59 154.37" class="st2"/>
						</g>
						<g id="shape71-75" transform="translate(22.4105,-97.5857)">
							<title>Line1.14</title>
							<path d="M7.09 154.37 L7.09 251.96" class="st2"/>
						</g>
						<g id="shape72-78" transform="translate(187.556,56.7864) rotate(90)">
							<title>Sheet.72</title>
							<path d="M0 154.37 L97.59 154.37" class="st2"/>
						</g>
						<g id="shape73-81" transform="translate(180.182,56.7864) rotate(90)">
							<title>Sheet.73</title>
							<path d="M0 154.37 L97.59 154.37" class="st2"/>
						</g>
					</g>
				</g>
			</g>
			<g id="group79-84" transform="translate(425.197,-21.2598)">
				<title>Sheet.79</title>
				<g id="group80-85">
					<title>Sheet.80</title>
					<g id="group81-86">
						<title>Sheet.81</title>
						<g id="shape82-87" transform="translate(11.3491,-97.5857)">
							<title>Line1</title>
							<path d="M7.09 154.37 L7.09 251.96" class="st2"/>
						</g>
						<g id="shape83-90" transform="translate(176.495,56.7864) rotate(90)">
							<title>Sheet.83</title>
							<path d="M0 154.37 L97.59 154.37" class="st2"/>
						</g>
						<g id="shape84-93" transform="translate(169.121,56.7864) rotate(90)">
							<title>Sheet.84</title>
							<path d="M0 154.37 L97.59 154.37" class="st2"/>
						</g>
						<g id="shape85-96" transform="translate(22.4105,-97.5857)">
							<title>Line1.14</title>
							<path d="M7.09 154.37 L7.09 251.96" class="st2"/>
						</g>
						<g id="shape86-99" transform="translate(187.556,56.7864) rotate(90)">
							<title>Sheet.86</title>
							<path d="M0 154.37 L97.59 154.37" class="st2"/>
						</g>
						<g id="shape87-102" transform="translate(180.182,56.7864) rotate(90)">
							<title>Sheet.87</title>
							<path d="M0 154.37 L97.59 154.37" class="st2"/>
						</g>
					</g>
					<g id="group88-105" transform="translate(21.7542,0)">
						<title>Sheet.88</title>
						<g id="shape89-106" transform="translate(11.3491,-97.5857)">
							<title>Line1</title>
							<path d="M7.09 154.37 L7.09 251.96" class="st2"/>
						</g>
						<g id="shape90-109" transform="translate(176.495,56.7864) rotate(90)">
							<title>Sheet.90</title>
							<path d="M0 154.37 L97.59 154.37" class="st2"/>
						</g>
						<g id="shape91-112" transform="translate(169.121,56.7864) rotate(90)">
							<title>Sheet.91</title>
							<path d="M0 154.37 L97.59 154.37" class="st2"/>
						</g>
						<g id="shape92-115" transform="translate(22.4105,-97.5857)">
							<title>Line1.14</title>
							<path d="M7.09 154.37 L7.09 251.96" class="st2"/>
						</g>
						<g id="shape93-118" transform="translate(187.556,56.7864) rotate(90)">
							<title>Sheet.93</title>
							<path d="M0 154.37 L97.59 154.37" class="st2"/>
						</g>
						<g id="shape94-121" transform="translate(180.182,56.7864) rotate(90)">
							<title>Sheet.94</title>
							<path d="M0 154.37 L97.59 154.37" class="st2"/>
						</g>
					</g>
				</g>
				<g id="group95-124" transform="translate(43.6988,-2.84217E-014)">
					<title>Sheet.95</title>
					<g id="group96-125">
						<title>Sheet.96</title>
						<g id="shape97-126" transform="translate(11.3491,-97.5857)">
							<title>Line1</title>
							<path d="M7.09 154.37 L7.09 251.96" class="st2"/>
						</g>
						<g id="shape98-129" transform="translate(176.495,56.7864) rotate(90)">
							<title>Sheet.98</title>
							<path d="M0 154.37 L97.59 154.37" class="st2"/>
						</g>
						<g id="shape99-132" transform="translate(169.121,56.7864) rotate(90)">
							<title>Sheet.99</title>
							<path d="M0 154.37 L97.59 154.37" class="st2"/>
						</g>
						<g id="shape100-135" transform="translate(22.4105,-97.5857)">
							<title>Line1.14</title>
							<path d="M7.09 154.37 L7.09 251.96" class="st2"/>
						</g>
						<g id="shape101-138" transform="translate(187.556,56.7864) rotate(90)">
							<title>Sheet.101</title>
							<path d="M0 154.37 L97.59 154.37" class="st2"/>
						</g>
						<g id="shape102-141" transform="translate(180.182,56.7864) rotate(90)">
							<title>Sheet.102</title>
							<path d="M0 154.37 L97.59 154.37" class="st2"/>
						</g>
					</g>
					<g id="group103-144" transform="translate(21.7542,0)">
						<title>Sheet.103</title>
						<g id="shape104-145" transform="translate(11.3491,-97.5857)">
							<title>Line1</title>
							<path d="M7.09 154.37 L7.09 251.96" class="st2"/>
						</g>
						<g id="shape105-148" transform="translate(176.495,56.7864) rotate(90)">
							<title>Sheet.105</title>
							<path d="M0 154.37 L97.59 154.37" class="st2"/>
						</g>
						<g id="shape106-151" transform="translate(169.121,56.7864) rotate(90)">
							<title>Sheet.106</title>
							<path d="M0 154.37 L97.59 154.37" class="st2"/>
						</g>
						<g id="shape107-154" transform="translate(22.4105,-97.5857)">
							<title>Line1.14</title>
							<path d="M7.09 154.37 L7.09 251.96" class="st2"/>
						</g>
						<g id="shape108-157" transform="translate(187.556,56.7864) rotate(90)">
							<title>Sheet.108</title>
							<path d="M0 154.37 L97.59 154.37" class="st2"/>
						</g>
						<g id="shape109-160" transform="translate(180.182,56.7864) rotate(90)">
							<title>Sheet.109</title>
							<path d="M0 154.37 L97.59 154.37" class="st2"/>
						</g>
					</g>
				</g>
			</g>
			<g id="shape110-163" transform="translate(269.291,-5.68434E-014)">
				<title>Line1.110</title>
				<desc>600 µss</desc>
				<path d="M9.45 147.29 L9.81 147.29 L75.23 147.29" class="st3"/>
				<rect x="19.9214" y="140.086" width="45.6045" height="14.4001" class="st5"/>
				<text x="23.26" y="150.89" class="st6">600 µs<tspan class="st7">s</tspan></text>			</g>
			<g id="shape111-175" transform="translate(354.331,-1.13687E-013)">
				<title>Line1.111</title>
				<desc>600 µss</desc>
				<path d="M9.45 147.29 L9.81 147.29 L75.23 147.29" class="st3"/>
				<rect x="20.0631" y="140.086" width="45.6045" height="14.4001" class="st5"/>
				<text x="23.4" y="150.89" class="st6">600 µs<tspan class="st7">s</tspan></text>			</g>
			<g id="shape112-185" transform="translate(262.205,-20.9764)">
				<title>Line1.112</title>
				<path d="M7.09 154.37 L7.09 173.93" class="st8"/>
			</g>
			<g id="shape113-188" transform="translate(347.244,-20.9764)">
				<title>Line1.113</title>
				<path d="M7.09 154.37 L7.09 173.93" class="st8"/>
			</g>
			<g id="shape114-191" transform="translate(432.283,-20.9764)">
				<title>Line1.114</title>
				<path d="M7.09 154.37 L7.09 173.93" class="st8"/>
			</g>
			<g id="shape115-194" transform="translate(432.283,-148.819)">
				<title>Line1.115</title>
				<path d="M7.09 154.37 L7.09 183.78" class="st8"/>
			</g>
			<g id="shape116-197" transform="translate(262.205,-148.819)">
				<title>Line1.116</title>
				<path d="M7.09 154.37 L7.09 183.78" class="st8"/>
			</g>
			<g id="shape117-200" transform="translate(269.291,-141.732)">
				<title>Line1.117</title>
				<desc>Logical &#34;0&#34;s</desc>
				<path d="M9.45 161.46 L9.81 161.46 L160.27 161.46" class="st3"/>
				<rect x="50.4258" y="154.259" width="65.8897" height="14.4001" class="st5"/>
				<text x="53.76" y="165.06" class="st6">Logical &#34;0&#34;<tspan class="st7">s</tspan></text>			</g>
			<g id="shape120-210" transform="translate(7.08661,-21.2598)">
				<title>Line1.120</title>
				<path d="M7.09 154.37 L7.09 173.93" class="st8"/>
			</g>
			<g id="shape121-213" transform="translate(180,-20.7283)">
				<title>Line1.121</title>
				<path d="M7.09 154.37 L7.09 173.93" class="st8"/>
			</g>
			<g id="shape122-216" transform="translate(187.087,-14.1732)">
				<title>Line1.122</title>
				<desc>600 µss</desc>
				<path d="M9.45 161.46 L9.81 161.46 L72.39 161.46" class="st3"/>
				<rect x="17.9371" y="154.259" width="45.6045" height="14.4001" class="st5"/>
				<text x="21.27" y="165.06" class="st6">600 µs<tspan class="st7">s</tspan></text>			</g>
			<g id="shape123-226" transform="translate(14.1732,-14.1732)">
				<title>Line1.123</title>
				<desc>1200 µss</desc>
				<path d="M9.45 161.46 L9.81 161.46 L163.1 161.46" class="st3"/>
				<rect x="60.3779" y="154.259" width="52.2784" height="14.4001" class="st5"/>
				<text x="63.71" y="165.06" class="st6">1200 µs<tspan class="st7">s</tspan></text>			</g>
			<g id="shape125-236" transform="translate(7.08661,-149.882)">
				<title>Line1.125</title>
				<path d="M7.09 154.37 L7.09 183.78" class="st8"/>
			</g>
			<g id="shape126-239" transform="translate(14.1732,-127.559)">
				<title>Line1.126</title>
				<desc>Logical &#34;1&#34;s</desc>
				<path d="M9.45 147.29 L9.81 147.29 L245.31 147.29" class="st3"/>
				<rect x="92.9455" y="140.086" width="65.8897" height="14.4001" class="st5"/>
				<text x="96.28" y="150.89" class="st6">Logical &#34;1&#34;<tspan class="st7">s</tspan></text>			</g>
			<g id="group127-249" transform="translate(3.19744E-014,-21.2598)">
				<title>Sheet.127</title>
				<g id="group128-250">
					<title>Sheet.128</title>
					<g id="group129-251">
						<title>Sheet.129</title>
						<g id="shape130-252" transform="translate(11.3491,-97.5857)">
							<title>Line1</title>
							<path d="M7.09 154.37 L7.09 251.96" class="st2"/>
						</g>
						<g id="shape131-255" transform="translate(176.495,56.7864) rotate(90)">
							<title>Sheet.131</title>
							<path d="M0 154.37 L97.59 154.37" class="st2"/>
						</g>
						<g id="shape132-258" transform="translate(169.121,56.7864) rotate(90)">
							<title>Sheet.132</title>
							<path d="M0 154.37 L97.59 154.37" class="st2"/>
						</g>
						<g id="shape133-261" transform="translate(22.4105,-97.5857)">
							<title>Line1.14</title>
							<path d="M7.09 154.37 L7.09 251.96" class="st2"/>
						</g>
						<g id="shape134-264" transform="translate(187.556,56.7864) rotate(90)">
							<title>Sheet.134</title>
							<path d="M0 154.37 L97.59 154.37" class="st2"/>
						</g>
						<g id="shape135-267" transform="translate(180.182,56.7864) rotate(90)">
							<title>Sheet.135</title>
							<path d="M0 154.37 L97.59 154.37" class="st2"/>
						</g>
					</g>
					<g id="group136-270" transform="translate(21.7542,0)">
						<title>Sheet.136</title>
						<g id="shape137-271" transform="translate(11.3491,-97.5857)">
							<title>Line1</title>
							<path d="M7.09 154.37 L7.09 251.96" class="st2"/>
						</g>
						<g id="shape138-274" transform="translate(176.495,56.7864) rotate(90)">
							<title>Sheet.138</title>
							<path d="M0 154.37 L97.59 154.37" class="st2"/>
						</g>
						<g id="shape139-277" transform="translate(169.121,56.7864) rotate(90)">
							<title>Sheet.139</title>
							<path d="M0 154.37 L97.59 154.37" class="st2"/>
						</g>
						<g id="shape140-280" transform="translate(22.4105,-97.5857)">
							<title>Line1.14</title>
							<path d="M7.09 154.37 L7.09 251.96" class="st2"/>
						</g>
						<g id="shape141-283" transform="translate(187.556,56.7864) rotate(90)">
							<title>Sheet.141</title>
							<path d="M0 154.37 L97.59 154.37" class="st2"/>
						</g>
						<g id="shape142-286" transform="translate(180.182,56.7864) rotate(90)">
							<title>Sheet.142</title>
							<path d="M0 154.37 L97.59 154.37" class="st2"/>
						</g>
					</g>
				</g>
				<g id="group143-289" transform="translate(43.6988,-2.84217E-014)">
					<title>Sheet.143</title>
					<g id="group144-290">
						<title>Sheet.144</title>
						<g id="shape145-291" transform="translate(11.3491,-97.5857)">
							<title>Line1</title>
							<path d="M7.09 154.37 L7.09 251.96" class="st2"/>
						</g>
						<g id="shape146-294" transform="translate(176.495,56.7864) rotate(90)">
							<title>Sheet.146</title>
							<path d="M0 154.37 L97.59 154.37" class="st2"/>
						</g>
						<g id="shape147-297" transform="translate(169.121,56.7864) rotate(90)">
							<title>Sheet.147</title>
							<path d="M0 154.37 L97.59 154.37" class="st2"/>
						</g>
						<g id="shape148-300" transform="translate(22.4105,-97.5857)">
							<title>Line1.14</title>
							<path d="M7.09 154.37 L7.09 251.96" class="st2"/>
						</g>
						<g id="shape149-303" transform="translate(187.556,56.7864) rotate(90)">
							<title>Sheet.149</title>
							<path d="M0 154.37 L97.59 154.37" class="st2"/>
						</g>
						<g id="shape150-306" transform="translate(180.182,56.7864) rotate(90)">
							<title>Sheet.150</title>
							<path d="M0 154.37 L97.59 154.37" class="st2"/>
						</g>
					</g>
					<g id="group151-309" transform="translate(21.7542,0)">
						<title>Sheet.151</title>
						<g id="shape152-310" transform="translate(11.3491,-97.5857)">
							<title>Line1</title>
							<path d="M7.09 154.37 L7.09 251.96" class="st2"/>
						</g>
						<g id="shape153-313" transform="translate(176.495,56.7864) rotate(90)">
							<title>Sheet.153</title>
							<path d="M0 154.37 L97.59 154.37" class="st2"/>
						</g>
						<g id="shape154-316" transform="translate(169.121,56.7864) rotate(90)">
							<title>Sheet.154</title>
							<path d="M0 154.37 L97.59 154.37" class="st2"/>
						</g>
						<g id="shape155-319" transform="translate(22.4105,-97.5857)">
							<title>Line1.14</title>
							<path d="M7.09 154.37 L7.09 251.96" class="st2"/>
						</g>
						<g id="shape156-322" transform="translate(187.556,56.7864) rotate(90)">
							<title>Sheet.156</title>
							<path d="M0 154.37 L97.59 154.37" class="st2"/>
						</g>
						<g id="shape157-325" transform="translate(180.182,56.7864) rotate(90)">
							<title>Sheet.157</title>
							<path d="M0 154.37 L97.59 154.37" class="st2"/>
						</g>
					</g>
				</g>
			</g>
			<g id="group158-328" transform="translate(87.874,-21.2598)">
				<title>Sheet.158</title>
				<g id="group159-329">
					<title>Sheet.159</title>
					<g id="group160-330">
						<title>Sheet.160</title>
						<g id="shape161-331" transform="translate(11.3491,-97.5857)">
							<title>Line1</title>
							<path d="M7.09 154.37 L7.09 251.96" class="st2"/>
						</g>
						<g id="shape162-334" transform="translate(176.495,56.7864) rotate(90)">
							<title>Sheet.162</title>
							<path d="M0 154.37 L97.59 154.37" class="st2"/>
						</g>
						<g id="shape163-337" transform="translate(169.121,56.7864) rotate(90)">
							<title>Sheet.163</title>
							<path d="M0 154.37 L97.59 154.37" class="st2"/>
						</g>
						<g id="shape164-340" transform="translate(22.4105,-97.5857)">
							<title>Line1.14</title>
							<path d="M7.09 154.37 L7.09 251.96" class="st2"/>
						</g>
						<g id="shape165-343" transform="translate(187.556,56.7864) rotate(90)">
							<title>Sheet.165</title>
							<path d="M0 154.37 L97.59 154.37" class="st2"/>
						</g>
						<g id="shape166-346" transform="translate(180.182,56.7864) rotate(90)">
							<title>Sheet.166</title>
							<path d="M0 154.37 L97.59 154.37" class="st2"/>
						</g>
					</g>
					<g id="group167-349" transform="translate(21.7542,0)">
						<title>Sheet.167</title>
						<g id="shape168-350" transform="translate(11.3491,-97.5857)">
							<title>Line1</title>
							<path d="M7.09 154.37 L7.09 251.96" class="st2"/>
						</g>
						<g id="shape169-353" transform="translate(176.495,56.7864) rotate(90)">
							<title>Sheet.169</title>
							<path d="M0 154.37 L97.59 154.37" class="st2"/>
						</g>
						<g id="shape170-356" transform="translate(169.121,56.7864) rotate(90)">
							<title>Sheet.170</title>
							<path d="M0 154.37 L97.59 154.37" class="st2"/>
						</g>
						<g id="shape171-359" transform="translate(22.4105,-97.5857)">
							<title>Line1.14</title>
							<path d="M7.09 154.37 L7.09 251.96" class="st2"/>
						</g>
						<g id="shape172-362" transform="translate(187.556,56.7864) rotate(90)">
							<title>Sheet.172</title>
							<path d="M0 154.37 L97.59 154.37" class="st2"/>
						</g>
						<g id="shape173-365" transform="translate(180.182,56.7864) rotate(90)">
							<title>Sheet.173</title>
							<path d="M0 154.37 L97.59 154.37" class="st2"/>
						</g>
					</g>
				</g>
				<g id="group174-368" transform="translate(43.6988,-2.84217E-014)">
					<title>Sheet.174</title>
					<g id="group175-369">
						<title>Sheet.175</title>
						<g id="shape176-370" transform="translate(11.3491,-97.5857)">
							<title>Line1</title>
							<path d="M7.09 154.37 L7.09 251.96" class="st2"/>
						</g>
						<g id="shape177-373" transform="translate(176.495,56.7864) rotate(90)">
							<title>Sheet.177</title>
							<path d="M0 154.37 L97.59 154.37" class="st2"/>
						</g>
						<g id="shape178-376" transform="translate(169.121,56.7864) rotate(90)">
							<title>Sheet.178</title>
							<path d="M0 154.37 L97.59 154.37" class="st2"/>
						</g>
						<g id="shape179-379" transform="translate(22.4105,-97.5857)">
							<title>Line1.14</title>
							<path d="M7.09 154.37 L7.09 251.96" class="st2"/>
						</g>
						<g id="shape180-382" transform="translate(187.556,56.7864) rotate(90)">
							<title>Sheet.180</title>
							<path d="M0 154.37 L97.59 154.37" class="st2"/>
						</g>
						<g id="shape181-385" transform="translate(180.182,56.7864) rotate(90)">
							<title>Sheet.181</title>
							<path d="M0 154.37 L97.59 154.37" class="st2"/>
						</g>
					</g>
					<g id="group182-388" transform="translate(21.7542,0)">
						<title>Sheet.182</title>
						<g id="shape183-389" transform="translate(11.3491,-97.5857)">
							<title>Line1</title>
							<path d="M7.09 154.37 L7.09 251.96" class="st2"/>
						</g>
						<g id="shape184-392" transform="translate(176.495,56.7864) rotate(90)">
							<title>Sheet.184</title>
							<path d="M0 154.37 L97.59 154.37" class="st2"/>
						</g>
						<g id="shape185-395" transform="translate(169.121,56.7864) rotate(90)">
							<title>Sheet.185</title>
							<path d="M0 154.37 L97.59 154.37" class="st2"/>
						</g>
						<g id="shape186-398" transform="translate(22.4105,-97.5857)">
							<title>Line1.14</title>
							<path d="M7.09 154.37 L7.09 251.96" class="st2"/>
						</g>
						<g id="shape187-401" transform="translate(187.556,56.7864) rotate(90)">
							<title>Sheet.187</title>
							<path d="M0 154.37 L97.59 154.37" class="st2"/>
						</g>
						<g id="shape188-404" transform="translate(180.182,56.7864) rotate(90)">
							<title>Sheet.188</title>
							<path d="M0 154.37 L97.59 154.37" class="st2"/>
						</g>
					</g>
				</g>
			</g>
		</g>
	</g>
</svg>
