<?xml version="1.0" encoding="UTF-8" standalone="no"?>
<!DOCTYPE svg PUBLIC "-//W3C//DTD SVG 1.1//EN" "http://www.w3.org/Graphics/SVG/1.1/DTD/svg11.dtd">
<!-- Generated by Microsoft Visio, SVG Export sirc_symbol.svg Page-1 -->
<svg xmlns="http://www.w3.org/2000/svg" xmlns:xlink="http://www.w3.org/1999/xlink" xmlns:ev="http://www.w3.org/2001/xml-events"
		width="7.22703in" height="2.19115in" viewBox="0 0 520.346 157.763" xml:space="preserve" color-interpolation-filters="sRGB"
		class="st10">
	<style type="text/css">
	<![CDATA[
		.st1 {marker-end:url(#mrkr13-10);marker-start:url(#mrkr13-8);stroke:#000000;stroke-linecap:round;stroke-linejoin:round;stroke-width:0.75}
		.st2 {fill:#000000;fill-opacity:1;stroke:#000000;stroke-opacity:1;stroke-width:0.22935779816514}
		.st3 {fill:#ffffff;stroke:none;stroke-linecap:butt;stroke-width:7.2}
		.st4 {fill:#000000;font-family:Arial;font-size:0.833336em}
		.st5 {fill:#ffffff;font-size:1em}
		.st6 {stroke:#000000;stroke-dasharray:0.75,1.5;stroke-linecap:round;stroke-linejoin:round;stroke-width:0.75}
		.st7 {fill:#c4dbf2;stroke:#c4dbf2;stroke-width:1}
		.st8 {fill:none;stroke:none;stroke-linecap:round;stroke-linejoin:round;stroke-width:0.75}
		.st9 {stroke:#000000;stroke-linecap:round;stroke-linejoin:round;stroke-width:0.75}
		.st10 {fill:none;fill-rule:evenodd;font-size:12px;overflow:visible;stroke-linecap:square;stroke-miterlimit:3}
	]]>
	</style>

	<defs id="Markers">
		<g id="lend13">
			<path d="M 3 1 L 0 0 L 3 -1 L 3 1 " style="stroke:none"/>
		</g>
		<marker id="mrkr13-8" class="st2" refX="12.6" orient="auto" markerUnits="strokeWidth" overflow="visible">
			<use xlink:href="#lend13" transform="scale(4.36) "/>
		</marker>
		<marker id="mrkr13-10" class="st2" refX="-13.08" orient="auto" markerUnits="strokeWidth" overflow="visible">
			<use xlink:href="#lend13" transform="scale(-4.36,-4.36) "/>
		</marker>
	</defs>
	<g>
		<title>Page-1</title>
		<g id="group197-1" transform="translate(18.6505,-3.25403)">
			<title>Sheet.197</title>
			<g id="shape66-2" transform="translate(320.031,-14.1732)">
				<title>Line1.111</title>
				<desc>Address-</desc>
				<path d="M9.45 164.85 L9.81 164.85 L141.84 164.85" class="st1"/>
				<rect x="59.3581" y="158.85" width="42.7934" height="12.0001" class="st3"/>
				<text x="62.14" y="167.85" class="st4">Address<tspan class="st5">-</tspan></text>			</g>
			<g id="shape67-14" transform="translate(312.945,-25.5118)">
				<title>Line1.112</title>
				<path d="M7.09 157.76 L7.09 177.32" class="st6"/>
			</g>
			<g id="shape69-17" transform="translate(464.598,-25.5118)">
				<title>Line1.114</title>
				<path d="M7.09 157.76 L7.09 177.32" class="st6"/>
			</g>
			<g id="shape71-20" transform="translate(60.378,-154.134)">
				<title>Line1.116</title>
				<path d="M7.09 157.76 L7.09 187.17" class="st6"/>
			</g>
			<g id="shape73-23" transform="translate(4.25197,-25.5118)">
				<title>Line1.120</title>
				<path d="M7.09 157.76 L7.09 177.32" class="st6"/>
			</g>
			<g id="shape74-26" transform="translate(74.8346,-24.9449)">
				<title>Line1.121</title>
				<path d="M7.09 157.76 L7.09 177.32" class="st6"/>
			</g>
			<g id="shape75-29" transform="translate(81.9213,-1.98952E-013)">
				<title>Line1.122</title>
				<desc>Command-</desc>
				<path d="M9.45 150.68 L9.81 150.68 L228.3 150.68" class="st1"/>
				<rect x="90.4403" y="144.68" width="52.2364" height="12.0001" class="st3"/>
				<text x="93.22" y="153.68" class="st4">Command<tspan class="st5">-</tspan></text>			</g>
			<g id="shape76-39" transform="translate(11.3386,-14.315)">
				<title>Line1.123</title>
				<desc>Start-</desc>
				<path d="M9.45 164.75 L9.81 164.75 L60.77 164.95" class="st1"/>
				<rect x="22.9371" y="158.708" width="27.2269" height="12.0001" class="st3"/>
				<text x="25.72" y="167.71" class="st4">Start<tspan class="st5">-</tspan></text>			</g>
			<g id="shape77-49" transform="translate(4.25197,-154.134)">
				<title>Line1.125</title>
				<path d="M7.09 157.76 L7.09 187.17" class="st6"/>
			</g>
			<g id="shape78-52" transform="translate(11.3386,-145.984)">
				<title>Line1.126</title>
				<desc>2,4 ms</desc>
				<path d="M9.45 164.85 L9.81 164.85 L46.32 164.85" class="st1"/>
				<rect x="13.0159" y="158.85" width="30.0103" height="12.0001" class="st3"/>
				<text x="13.02" y="167.85" class="st4">2,4 ms</text>			</g>
			<g id="shape141-61" transform="translate(82.2047,-25.5118)">
				<title>Sheet.141</title>
				<rect x="0" y="58.5503" width="13.6063" height="99.2126" class="st7"/>
			</g>
			<g id="shape146-63" transform="translate(124.724,-25.5118)">
				<title>Sheet.146</title>
				<rect x="0" y="58.5503" width="13.6063" height="99.2126" class="st7"/>
			</g>
			<g id="shape142-65" transform="translate(11.3386,-25.5118)">
				<title>Sheet.142</title>
				<rect x="0" y="58.5503" width="13.6063" height="99.2126" class="st7"/>
			</g>
			<g id="shape143-67" transform="translate(25.5118,-25.5118)">
				<title>Sheet.143</title>
				<rect x="0" y="58.5503" width="13.6063" height="99.2126" class="st7"/>
			</g>
			<g id="shape144-69" transform="translate(39.685,-25.5118)">
				<title>Sheet.144</title>
				<rect x="0" y="58.5503" width="13.6063" height="99.2126" class="st7"/>
			</g>
			<g id="shape145-71" transform="translate(53.8583,-25.5118)">
				<title>Sheet.145</title>
				<rect x="0" y="58.5503" width="13.6063" height="99.2126" class="st7"/>
			</g>
			<g id="shape148-73" transform="translate(96.378,-25.5118)">
				<title>Sheet.148</title>
				<rect x="0" y="58.5503" width="13.6063" height="99.2126" class="st7"/>
			</g>
			<g id="shape149-75" transform="translate(292.252,-25.5118)">
				<title>Sheet.149</title>
				<rect x="0" y="58.5503" width="13.6063" height="99.2126" class="st7"/>
			</g>
			<g id="shape150-77" transform="translate(167.244,-25.5118)">
				<title>Sheet.150</title>
				<rect x="0" y="58.5503" width="13.6063" height="99.2126" class="st7"/>
			</g>
			<g id="shape151-79" transform="translate(138.898,-25.5118)">
				<title>Sheet.151</title>
				<rect x="0" y="58.5503" width="13.6063" height="99.2126" class="st7"/>
			</g>
			<g id="shape152-81" transform="translate(388.913,-25.5118)">
				<title>Sheet.152</title>
				<rect x="0" y="58.5503" width="13.6063" height="99.2126" class="st7"/>
			</g>
			<g id="shape153-83" transform="translate(444.472,-25.5118)">
				<title>Sheet.153</title>
				<rect x="0" y="58.5503" width="13.6063" height="99.2126" class="st7"/>
			</g>
			<g id="shape154-85" transform="translate(265.039,-25.5118)">
				<title>Sheet.154</title>
				<rect x="0" y="58.5503" width="13.6063" height="99.2126" class="st7"/>
			</g>
			<g id="shape155-87" transform="translate(237.26,-25.5118)">
				<title>Sheet.155</title>
				<rect x="0" y="58.5503" width="13.6063" height="99.2126" class="st7"/>
			</g>
			<g id="shape156-89" transform="translate(194.457,-25.5118)">
				<title>Sheet.156</title>
				<rect x="0" y="58.5503" width="13.6063" height="99.2126" class="st7"/>
			</g>
			<g id="shape157-91" transform="translate(223.37,-25.5118)">
				<title>Sheet.157</title>
				<rect x="0" y="58.5503" width="13.6063" height="99.2126" class="st7"/>
			</g>
			<g id="shape158-93" transform="translate(333.921,-25.5118)">
				<title>Sheet.158</title>
				<rect x="0" y="58.5503" width="13.6063" height="99.2126" class="st7"/>
			</g>
			<g id="shape159-95" transform="translate(361.701,-25.5118)">
				<title>Sheet.159</title>
				<rect x="0" y="58.5503" width="13.6063" height="99.2126" class="st7"/>
			</g>
			<g id="shape160-97" transform="translate(320.031,-25.5118)">
				<title>Sheet.160</title>
				<rect x="0" y="58.5503" width="13.6063" height="99.2126" class="st7"/>
			</g>
			<g id="shape161-99" transform="translate(416.693,-25.5118)">
				<title>Sheet.161</title>
				<rect x="0" y="58.5503" width="13.6063" height="99.2126" class="st7"/>
			</g>
			<g id="shape164-101" transform="translate(82.2047,-12.7559)">
				<title>Sheet.164</title>
				<desc>LSB</desc>
				<rect x="0" y="147.842" width="26.9291" height="9.92126" class="st8"/>
				<text x="4.01" y="155.8" class="st4">LSB</text>			</g>
			<g id="shape167-104" transform="translate(286.299,-13.4646)">
				<title>Sheet.167</title>
				<desc>MSB</desc>
				<rect x="0" y="147.842" width="34.0157" height="9.92126" class="st8"/>
				<text x="6.17" y="155.8" class="st4">MSB</text>			</g>
			<g id="shape169-107" transform="translate(320.705,-13.4646)">
				<title>Sheet.169</title>
				<desc>LSB</desc>
				<rect x="0" y="147.842" width="26.9291" height="9.92126" class="st8"/>
				<text x="4.01" y="155.8" class="st4">LSB</text>			</g>
			<g id="shape170-110" transform="translate(439.37,-13.4646)">
				<title>Sheet.170</title>
				<desc>MSB</desc>
				<rect x="0" y="147.842" width="34.0157" height="9.92126" class="st8"/>
				<text x="6.17" y="155.8" class="st4">MSB</text>			</g>
			<g id="shape184-113" transform="translate(89.2913,-133.228)">
				<title>Sheet.184</title>
				<desc>1</desc>
				<rect x="0" y="146.424" width="14.1732" height="11.3386" class="st8"/>
				<text x="4.31" y="155.09" class="st4">1</text>			</g>
			<g id="shape185-116" transform="translate(131.244,-133.228)">
				<title>Sheet.185</title>
				<desc>1</desc>
				<rect x="0" y="146.424" width="14.1732" height="11.3386" class="st8"/>
				<text x="4.31" y="155.09" class="st4">1</text>			</g>
			<g id="shape187-119" transform="translate(167.244,-133.228)">
				<title>Sheet.187</title>
				<desc>0</desc>
				<rect x="0" y="146.424" width="14.1732" height="11.3386" class="st8"/>
				<text x="4.31" y="155.09" class="st4">0</text>			</g>
			<g id="shape188-122" transform="translate(194.173,-133.228)">
				<title>Sheet.188</title>
				<desc>0</desc>
				<rect x="0" y="146.424" width="14.1732" height="11.3386" class="st8"/>
				<text x="4.31" y="155.09" class="st4">0</text>			</g>
			<g id="shape189-125" transform="translate(229.89,-133.228)">
				<title>Sheet.189</title>
				<desc>1</desc>
				<rect x="0" y="146.424" width="14.1732" height="11.3386" class="st8"/>
				<text x="4.31" y="155.09" class="st4">1</text>			</g>
			<g id="shape190-128" transform="translate(265.039,-133.228)">
				<title>Sheet.190</title>
				<desc>0</desc>
				<rect x="0" y="146.424" width="14.1732" height="11.3386" class="st8"/>
				<text x="4.31" y="155.09" class="st4">0</text>			</g>
			<g id="shape191-131" transform="translate(291.969,-133.228)">
				<title>Sheet.191</title>
				<desc>0</desc>
				<rect x="0" y="146.424" width="14.1732" height="11.3386" class="st8"/>
				<text x="4.31" y="155.09" class="st4">0</text>			</g>
			<g id="shape192-134" transform="translate(326.551,-133.228)">
				<title>Sheet.192</title>
				<desc>1</desc>
				<rect x="0" y="146.424" width="14.1732" height="11.3386" class="st8"/>
				<text x="4.31" y="155.09" class="st4">1</text>			</g>
			<g id="shape193-137" transform="translate(361.417,-133.228)">
				<title>Sheet.193</title>
				<desc>0</desc>
				<rect x="0" y="146.424" width="14.1732" height="11.3386" class="st8"/>
				<text x="4.31" y="155.09" class="st4">0</text>			</g>
			<g id="shape194-140" transform="translate(388.346,-133.228)">
				<title>Sheet.194</title>
				<desc>0</desc>
				<rect x="0" y="146.424" width="14.1732" height="11.3386" class="st8"/>
				<text x="4.31" y="155.09" class="st4">0</text>			</g>
			<g id="shape195-143" transform="translate(416.693,-133.228)">
				<title>Sheet.195</title>
				<desc>0</desc>
				<rect x="0" y="146.424" width="14.1732" height="11.3386" class="st8"/>
				<text x="4.31" y="155.09" class="st4">0</text>			</g>
			<g id="shape196-146" transform="translate(445.039,-133.228)">
				<title>Sheet.196</title>
				<desc>0</desc>
				<rect x="0" y="146.424" width="14.1732" height="11.3386" class="st8"/>
				<text x="4.31" y="155.09" class="st4">0</text>			</g>
			<g id="shape2-149" transform="translate(0,-32.5984)">
				<title>Line1</title>
				<path d="M0 164.85 L487.56 164.85" class="st9"/>
			</g>
		</g>
	</g>
</svg>
