<?xml version="1.0" encoding="UTF-8" standalone="no"?>
<!DOCTYPE svg PUBLIC "-//W3C//DTD SVG 1.1//EN" "http://www.w3.org/Graphics/SVG/1.1/DTD/svg11.dtd">
<!-- Generated by Microsoft Visio, SVG Export sr3_nrf52_fw_arch.svg Page-1 -->
<svg xmlns="http://www.w3.org/2000/svg" xmlns:xlink="http://www.w3.org/1999/xlink" xmlns:ev="http://www.w3.org/2001/xml-events"
		width="9.25197in" height="3.74016in" viewBox="0 0 666.142 269.291" xml:space="preserve" color-interpolation-filters="sRGB"
		class="st11">
	<style type="text/css">
	<![CDATA[
		.st1 {fill:#b6bfc9;stroke:#b6bfc9;stroke-linecap:round;stroke-linejoin:round;stroke-width:0.72}
		.st2 {fill:#000000;font-family:Calibri;font-size:0.833336em}
		.st3 {fill:#c4dbf2;stroke:#b7d2ee;stroke-linecap:round;stroke-linejoin:round;stroke-width:0.72}
		.st4 {fill:#88b7e4;stroke:#b7d2ee;stroke-linecap:round;stroke-linejoin:round;stroke-width:0.72}
		.st5 {font-size:1em}
		.st6 {marker-end:url(#mrkr13-19);stroke:#000000;stroke-linecap:round;stroke-linejoin:round;stroke-width:0.75}
		.st7 {fill:#000000;fill-opacity:1;stroke:#000000;stroke-opacity:1;stroke-width:0.22935779816514}
		.st8 {marker-start:url(#mrkr13-106);stroke:#000000;stroke-linecap:round;stroke-linejoin:round;stroke-width:0.75}
		.st9 {marker-end:url(#mrkr13-19);marker-start:url(#mrkr13-106);stroke:#000000;stroke-linecap:round;stroke-linejoin:round;stroke-width:0.75}
		.st10 {fill:#e9e9e1;stroke:#e9e9e1;stroke-linecap:round;stroke-linejoin:round;stroke-width:0.72}
		.st11 {fill:none;fill-rule:evenodd;font-size:12px;overflow:visible;stroke-linecap:square;stroke-miterlimit:3}
	]]>
	</style>

	<defs id="Markers">
		<g id="lend13">
			<path d="M 3 1 L 0 0 L 3 -1 L 3 1 " style="stroke:none"/>
		</g>
		<marker id="mrkr13-19" class="st7" refX="-13.08" orient="auto" markerUnits="strokeWidth" overflow="visible">
			<use xlink:href="#lend13" transform="scale(-4.36,-4.36) "/>
		</marker>
		<marker id="mrkr13-106" class="st7" refX="12.6" orient="auto" markerUnits="strokeWidth" overflow="visible">
			<use xlink:href="#lend13" transform="scale(4.36) "/>
		</marker>
	</defs>
	<g>
		<title>Page-1</title>
		<g id="shape13-1" transform="translate(14.1732,-221.453)">
			<title>Box.13</title>
			<desc>SoftDevice</desc>
			<rect x="0" y="235.976" width="208.346" height="33.3154" rx="5.66929" ry="5.66929" class="st1"/>
			<text x="82.47" y="255.63" class="st2">SoftDevice</text>		</g>
		<g id="shape15-4" transform="translate(11.9622,-104.203)">
			<title>Box.15</title>
			<desc>Audio Module</desc>
			<rect x="0" y="231.139" width="158.117" height="38.1526" rx="5.66929" ry="5.66929" class="st3"/>
			<text x="50.2" y="253.22" class="st2">Audio Module</text>		</g>
		<g id="shape16-7" transform="translate(14.1732,-170.809)">
			<title>Box.16</title>
			<desc>Communication Module</desc>
			<rect x="0" y="240.258" width="208.346" height="29.0335" rx="5.66929" ry="5.66929" class="st3"/>
			<text x="54.95" y="257.77" class="st2">Communication Module</text>		</g>
		<g id="shape66-10" transform="translate(104.882,-42.4603)">
			<title>Box.66</title>
			<desc>Codec Driver</desc>
			<rect x="0" y="237.991" width="65.1969" height="31.2999" rx="5.66929" ry="5.66929" class="st4"/>
			<text x="20.07" y="250.64" class="st2">Codec <tspan x="20.14" dy="1.2em" class="st5">Driver</tspan></text>		</g>
		<g id="shape115-14" transform="translate(98.1071,-142.356)">
			<title>Dynamic connector.115</title>
			<path d="M-7.09 269.29 L-7.09 251.38" class="st6"/>
		</g>
		<g id="shape116-20" transform="translate(95.5843,-199.843)">
			<title>Dynamic connector.116</title>
			<path d="M7.09 269.29 L7.09 257.49" class="st6"/>
		</g>
		<g id="shape117-25" transform="translate(123.931,-221.453)">
			<title>Dynamic connector.117</title>
			<path d="M7.09 269.29 L7.09 281.09" class="st6"/>
		</g>
		<g id="shape132-30" transform="translate(14.2156,-42.4603)">
			<title>Box.132</title>
			<desc>PDM Driver</desc>
			<rect x="0" y="237.991" width="65.1682" height="31.2999" rx="5.66929" ry="5.66929" class="st4"/>
			<text x="22.65" y="250.64" class="st2">PDM <tspan x="20.13" dy="1.2em" class="st5">Driver</tspan></text>		</g>
		<g id="shape167-34" transform="translate(457.904,-47.4803)">
			<title>Dynamic connector.167</title>
			<path d="M7.08 269.29 L7.09 255.72" class="st6"/>
		</g>
		<g id="shape168-39" transform="translate(473.465,-70.8661)">
			<title>Dynamic connector.168</title>
			<path d="M7.07 269.29 L7.09 282.87" class="st6"/>
		</g>
		<g id="shape146-44" transform="translate(348.422,-47.4803)">
			<title>Dynamic connector.146</title>
			<path d="M7.07 269.29 L7.09 255.72" class="st6"/>
		</g>
		<g id="shape147-49" transform="translate(363.938,-70.8661)">
			<title>Dynamic connector.147</title>
			<path d="M7.03 269.29 L7.1 282.87" class="st6"/>
		</g>
		<g id="shape189-54" transform="translate(253.531,-70.8661)">
			<title>Dynamic connector.189</title>
			<path d="M7.09 269.29 L7.09 282.87" class="st6"/>
		</g>
		<g id="shape195-59" transform="translate(356.06,-104.203)">
			<title>Dynamic connector.195</title>
			<path d="M7.09 269.29 L7.09 256.82" class="st6"/>
		</g>
		<g id="shape198-64" transform="translate(465.548,-104.203)">
			<title>Dynamic connector.198</title>
			<path d="M7.09 269.29 L7.09 256.54" class="st6"/>
		</g>
		<g id="shape200-69" transform="translate(269.462,-221.442)">
			<title>Box.200</title>
			<desc>IR Driver</desc>
			<rect x="0" y="235.954" width="74.154" height="33.3371" rx="5.66929" ry="5.66929" class="st4"/>
			<text x="19.52" y="255.62" class="st2">IR Driver</text>		</g>
		<g id="shape201-72" transform="translate(269.462,-166.505)">
			<title>Box.201</title>
			<desc>IR Module</desc>
			<rect x="0" y="235.954" width="74.154" height="33.3371" rx="5.66929" ry="5.66929" class="st3"/>
			<text x="16.17" y="255.62" class="st2">IR Module</text>		</g>
		<g id="shape202-75" transform="translate(291.798,-199.843)">
			<title>Dynamic connector.202</title>
			<path d="M7.09 269.29 L7.09 257.84" class="st6"/>
		</g>
		<g id="shape203-80" transform="translate(321.562,-221.102)">
			<title>Dynamic connector.203</title>
			<path d="M-7.09 269.29 L-7.09 280.74" class="st6"/>
		</g>
		<g id="shape205-85" transform="translate(381.201,-221.442)">
			<title>Box.136</title>
			<desc>Buzzer Driver</desc>
			<rect x="0" y="235.954" width="74.154" height="33.3371" rx="5.66929" ry="5.66929" class="st4"/>
			<text x="9.96" y="255.62" class="st2">Buzzer Driver</text>		</g>
		<g id="shape206-88" transform="translate(381.201,-166.505)">
			<title>Box.137</title>
			<desc>Buzzer Module</desc>
			<rect x="0" y="235.954" width="74.154" height="33.3371" rx="5.66929" ry="5.66929" class="st3"/>
			<text x="6.62" y="255.62" class="st2">Buzzer Module</text>		</g>
		<g id="shape207-91" transform="translate(403.537,-199.843)">
			<title>Dynamic connector.138</title>
			<path d="M7.09 269.29 L7.09 257.84" class="st6"/>
		</g>
		<g id="shape208-96" transform="translate(419.128,-221.102)">
			<title>Dynamic connector.139</title>
			<path d="M7.09 269.29 L7.09 280.74" class="st6"/>
		</g>
		<g id="shape210-101" transform="translate(299.452,-166.505)">
			<title>Dynamic connector.210</title>
			<path d="M7.09 278.74 L7.09 279.1 L7.09 293.44" class="st8"/>
		</g>
		<g id="shape213-107" transform="translate(411.191,-166.505)">
			<title>Dynamic connector.213</title>
			<path d="M7.09 278.74 L7.09 279.1 L7.09 293.44" class="st8"/>
		</g>
		<g id="shape219-112" transform="translate(197.631,-170.809)">
			<title>Dynamic connector.219</title>
			<path d="M7.09 278.74 L7.09 279.1 L7.09 287.93" class="st9"/>
		</g>
		<g id="shape222-119" transform="translate(245.594,-104.203)">
			<title>Dynamic connector.222</title>
			<path d="M7.09 269.29 L7.09 256.88" class="st6"/>
		</g>
		<g id="shape244-124" transform="translate(577.602,-80.4481)">
			<title>Dynamic connector.244</title>
			<path d="M-9.45 262.2 L-9.81 262.2 L-17.96 262.2" class="st9"/>
		</g>
		<g id="shape246-131" transform="translate(577.602,-128.268)">
			<title>Dynamic connector.246</title>
			<path d="M-9.45 262.2 L-9.81 262.2 L-17.96 262.2" class="st9"/>
		</g>
		<g id="group249-138" transform="translate(557.051,-70.8661)">
			<title>Sheet.249</title>
			<g id="shape236-139" transform="translate(20.5512,-95.6392)">
				<title>Box.236</title>
				<desc>HID Protocol Module</desc>
				<rect x="0" y="235.954" width="74.154" height="33.3371" rx="5.66929" ry="5.66929" class="st3"/>
				<text x="11.32" y="249.62" class="st2">HID Protocol <tspan x="21.28" dy="1.2em" class="st5">Module</tspan></text>			</g>
			<g id="shape237-143" transform="translate(20.5512,0)">
				<title>Box.237</title>
				<desc>System State Module</desc>
				<rect x="0" y="235.954" width="74.154" height="33.3371" rx="5.66929" ry="5.66929" class="st3"/>
				<text x="10.74" y="249.62" class="st2">System State <tspan x="21.28" dy="1.2em" class="st5">Module</tspan></text>			</g>
			<g id="shape238-147" transform="translate(20.5512,-47.8196)">
				<title>Box.238</title>
				<desc>IR Protocol Module</desc>
				<rect x="0" y="235.954" width="74.154" height="33.3371" rx="5.66929" ry="5.66929" class="st3"/>
				<text x="14.8" y="249.62" class="st2">IR Protocol <tspan x="21.28" dy="1.2em" class="st5">Module</tspan></text>			</g>
			<g id="shape248-151" transform="translate(20.5512,-105.221)">
				<title>Dynamic connector.248</title>
				<path d="M-9.45 262.2 L-9.81 262.2 L-17.96 262.2" class="st9"/>
			</g>
		</g>
		<g id="group250-158" transform="translate(215.603,-14.1432)">
			<title>Sheet.250</title>
			<g id="shape186-159" transform="translate(2.39808E-014,-56.723)">
				<title>Box.186</title>
				<desc>Keyboard Module</desc>
				<rect x="0" y="235.954" width="74.154" height="33.3371" rx="5.66929" ry="5.66929" class="st3"/>
				<text x="17.7" y="249.62" class="st2">Keyboard <tspan x="21.28" dy="1.2em" class="st5">Module</tspan></text>			</g>
			<g id="shape187-163">
				<title>Box.187</title>
				<desc>Keyboard Driver</desc>
				<rect x="0" y="235.954" width="74.154" height="33.3371" rx="5.66929" ry="5.66929" class="st4"/>
				<text x="17.7" y="249.62" class="st2">Keyboard <tspan x="24.62" dy="1.2em" class="st5">Driver</tspan></text>			</g>
		</g>
		<g id="shape144-167" transform="translate(326.069,-70.8661)">
			<title>Box.144</title>
			<desc>Gyro Module</desc>
			<rect x="0" y="235.954" width="74.154" height="33.3371" rx="5.66929" ry="5.66929" class="st3"/>
			<text x="10.35" y="255.62" class="st2">Gyro Module</text>		</g>
		<g id="shape145-170" transform="translate(326.069,-14.1432)">
			<title>Box.145</title>
			<desc>Gyro Driver</desc>
			<rect x="0" y="235.954" width="74.154" height="33.3371" rx="5.66929" ry="5.66929" class="st4"/>
			<text x="13.69" y="255.62" class="st2">Gyro Driver</text>		</g>
		<g id="shape165-173" transform="translate(435.558,-70.8661)">
			<title>Box.165</title>
			<desc>... Module</desc>
			<rect x="0" y="235.954" width="74.154" height="33.3371" rx="5.66929" ry="5.66929" class="st3"/>
			<text x="16.36" y="255.62" class="st2">... Module</text>		</g>
		<g id="shape166-176" transform="translate(435.558,-14.1432)">
			<title>Box.166</title>
			<desc>... Driver</desc>
			<rect x="0" y="235.954" width="74.154" height="33.3371" rx="5.66929" ry="5.66929" class="st4"/>
			<text x="19.7" y="255.62" class="st2">... Driver</text>		</g>
		<g id="shape257-179" transform="translate(252.113,-47.4803)">
			<title>Dynamic connector.257</title>
			<path d="M-7.09 269.29 L-7.09 255.72" class="st6"/>
		</g>
		<g id="shape264-184" transform="translate(28.9557,-104.203)">
			<title>Dynamic connector</title>
			<path d="M7.09 269.29 L7.09 289.92" class="st6"/>
		</g>
		<g id="shape265-189" transform="translate(64.3888,-73.7602)">
			<title>Dynamic connector.265</title>
			<path d="M-7.09 269.29 L-7.09 248.66" class="st6"/>
		</g>
		<g id="shape266-194" transform="translate(119.679,-104.203)">
			<title>Dynamic connector.266</title>
			<path d="M7.09 269.29 L7.09 289.92" class="st6"/>
		</g>
		<g id="shape267-199" transform="translate(155.112,-73.7602)">
			<title>Dynamic connector.267</title>
			<path d="M-7.09 269.29 L-7.09 248.66" class="st6"/>
		</g>
		<g id="group268-204" transform="translate(187.71,-70.8661)">
			<title>Sheet.268</title>
			<g id="shape83-205" transform="translate(0,-55.8992)">
				<title>Box.83</title>
				<desc>Event Bus</desc>
				<rect x="0" y="253.701" width="350.872" height="15.5906" rx="5.66929" ry="5.66929" class="st10"/>
				<text x="155.51" y="264.5" class="st2">Event Bus</text>			</g>
			<g id="shape231-208" transform="translate(615.827,140.315) rotate(90)">
				<title>Box.231</title>
				<rect x="0" y="253.701" width="128.976" height="15.5906" rx="5.66929" ry="5.66929" class="st10"/>
			</g>
		</g>
	</g>
</svg>
