<?xml version="1.0" encoding="UTF-8" standalone="no"?>
<!DOCTYPE svg PUBLIC "-//W3C//DTD SVG 1.1//EN" "http://www.w3.org/Graphics/SVG/1.1/DTD/svg11.dtd">
<!-- Generated by Microsoft Visio, SVG Export audio_buffers_frames.svg Page-1 -->
<svg xmlns="http://www.w3.org/2000/svg" xmlns:xlink="http://www.w3.org/1999/xlink" xmlns:ev="http://www.w3.org/2001/xml-events"
		width="11.3644in" height="4.53022in" viewBox="0 0 818.24 326.176" xml:space="preserve" color-interpolation-filters="sRGB"
		class="st17">
	<style type="text/css">
	<![CDATA[
		.st1 {fill:#c4dbf2;stroke:#000000;stroke-width:0.72}
		.st2 {fill:#000000;font-family:Calibri;font-size:0.833336em}
		.st3 {stroke:#000000;stroke-linecap:round;stroke-linejoin:round;stroke-width:0.75}
		.st4 {fill:none;stroke:none;stroke-linecap:round;stroke-linejoin:round;stroke-width:0.75}
		.st5 {fill:#000000;font-family:Calibri;font-size:1.99999em}
		.st6 {fill:#009cde;stroke:#000000;stroke-linecap:round;stroke-linejoin:round;stroke-width:0.24}
		.st7 {fill:#c4dbf2;stroke:#000000;stroke-linecap:round;stroke-linejoin:round;stroke-width:0.24}
		.st8 {fill:#000000;font-family:Arial;font-size:1.00001em}
		.st9 {font-size:1em}
		.st10 {fill:#000000;font-family:Calibri;font-size:1.24999em;font-weight:bold}
		.st11 {font-size:1em;font-style:italic}
		.st12 {fill:#4677bf;fill-opacity:1;stroke:#4677bf;stroke-opacity:1;stroke-width:0.16556291390728}
		.st13 {marker-end:url(#mrkr4-53);stroke:#000000;stroke-linecap:round;stroke-linejoin:round;stroke-width:0.5}
		.st14 {fill:#000000;fill-opacity:1;stroke:#000000;stroke-opacity:1;stroke-width:0.16556291390728}
		.st15 {fill:#c4dbf2;stroke:none;stroke-linecap:round;stroke-linejoin:round;stroke-width:0.75}
		.st16 {fill:#ffffff}
		.st17 {fill:none;fill-rule:evenodd;font-size:12px;overflow:visible;stroke-linecap:square;stroke-miterlimit:3}
	]]>
	</style>

	<defs id="Markers">
		<g id="lend4">
			<path d="M 2 1 L 0 0 L 2 -1 L 2 1 " style="stroke:none"/>
		</g>
		<marker id="mrkr4-44" class="st12" refX="-12.08" orient="auto" markerUnits="strokeWidth" overflow="visible">
			<use xlink:href="#lend4" transform="scale(-6.04,-6.04) "/>
		</marker>
		<marker id="mrkr4-53" class="st14" refX="-12.08" orient="auto" markerUnits="strokeWidth" overflow="visible">
			<use xlink:href="#lend4" transform="scale(-6.04,-6.04) "/>
		</marker>
	</defs>
	<g>
		<title>Page-1</title>
		<g id="group227-1" transform="translate(147.214,-45.8009)">
			<title>Sheet.227</title>
			<g id="shape228-2">
				<title>Box.2</title>
				<desc>Filled buffers queue</desc>
				<rect x="0" y="288.023" width="155.906" height="38.1526" class="st1"/>
				<text x="37.49" y="310.1" class="st2">Filled buffers queue</text>			</g>
			<g id="shape229-5" transform="translate(340.349,288.023) rotate(90)">
				<title>Sheet.229</title>
				<path d="M0 326.18 L38.15 326.18" class="st3"/>
			</g>
			<g id="shape230-8" transform="translate(-184.444,326.176) rotate(-90)">
				<title>Sheet.230</title>
				<path d="M0 326.18 L38.15 326.18" class="st3"/>
			</g>
		</g>
		<g id="shape231-11" transform="translate(137.667,-269.74)">
			<title>Sheet.231</title>
			<desc>Audio buffer pool</desc>
			<rect x="0" y="270.115" width="185" height="56.0606" class="st4"/>
			<text x="6.64" y="305.35" class="st5">Audio buffer pool</text>		</g>
		<g id="shape232-14" transform="translate(508.12,-269.74)">
			<title>Sheet.232</title>
			<desc>Audio frame pool</desc>
			<rect x="0" y="270.115" width="185" height="56.0605" class="st4"/>
			<text x="7.57" y="305.35" class="st5">Audio frame pool</text>		</g>
		<g id="shape236-17" transform="translate(-47.8109,140.375) rotate(-90) scale(-1,1)">
			<title>Circular Arrow.236</title>
			<path d="M67.6 304.89 L91.48 292.82 L85.59 290.86 A40.1919 41.2636 -180 1 0 17.53 306.15 L27.35 296.74 A26.7686 27.4825
						 0 1 1 72.68 286.56 L66.78 284.59 L67.6 304.89 Z" class="st6"/>
		</g>
		<g id="shape237-19" transform="translate(0.12,-130.116)">
			<title>Start/End-point</title>
			<desc>Microphone input from PDM interface</desc>
			<path d="M21.75 326.18 L94.25 326.18 A21.75 21.75 -180 0 0 94.25 282.68 L21.75 282.68 A21.75 21.75 -180 1 0 21.75 326.18
						 Z" class="st7"/>
			<text x="11.97" y="300.83" class="st8">Microphone input <tspan x="6.32" dy="1.2em" class="st9">from PDM interface</tspan></text>		</g>
		<g id="shape238-23" transform="translate(338.12,-141.646)">
			<title>Sheet.238</title>
			<desc>m_audio_process()</desc>
			<rect x="0" y="288.127" width="130" height="38.0488" class="st4"/>
			<text x="5.51" y="311.65" class="st10">m_audio_process()</text>		</g>
		<g id="group246-26" transform="translate(515.167,-45.8009)">
			<title>Sheet.246</title>
			<g id="shape247-27">
				<title>Box.2</title>
				<desc>Frame queue</desc>
				<rect x="0" y="288.023" width="155.906" height="38.1526" class="st1"/>
				<text x="51.05" y="310.1" class="st2">Frame queue</text>			</g>
			<g id="shape248-30" transform="translate(340.349,288.023) rotate(90)">
				<title>Sheet.248</title>
				<path d="M0 326.18 L38.15 326.18" class="st3"/>
			</g>
			<g id="shape249-33" transform="translate(-184.444,326.176) rotate(-90)">
				<title>Sheet.249</title>
				<path d="M0 326.18 L38.15 326.18" class="st3"/>
			</g>
		</g>
		<g id="shape255-36" transform="translate(701.038,-129.45)">
			<title>Start/End-point.255</title>
			<desc>Send frames over Bluetooth</desc>
			<path d="M21.75 326.18 L95.33 326.18 A21.75 21.75 -180 0 0 95.33 282.68 L21.75 282.68 A21.75 21.75 -180 1 0 21.75 326.18
						 Z" class="st7"/>
			<text x="11.18" y="300.81" class="st8">Send frames over <tspan x="33.19" dy="1.202em" class="st11">Bluetooth</tspan></text>		</g>
		<g id="group270-40" transform="translate(435.62,-141.646)">
			<title>Flowline2</title>
			<g id="shape271-41" transform="translate(281.671,158.516) rotate(39.588)">
				<title>Straight Edge.28</title>
				<desc>N</desc>
			</g>
			<g id="shape272-45" transform="translate(317.174,308.172) rotate(90)">
				<title>Straight Edge.29</title>
				<desc>N</desc>
			</g>
			<g id="shape270-48">
				<path d="M0 326.18 L0 384.95 A18 18 -180 0 0 18 402.95 L73.51 402.95" class="st13"/>
			</g>
		</g>
		<g id="group275-54" transform="translate(671.073,-64.8772)">
			<title>Flowline2.275</title>
			<g id="shape276-55" transform="translate(-114.148,17.6139) rotate(-39.7126)">
				<title>Straight Edge.28</title>
				<desc>N</desc>
			</g>
			<g id="shape277-58" transform="translate(-18.0036,9.00182)">
				<title>Straight Edge.29</title>
				<desc>N</desc>
			</g>
			<g id="shape275-61">
				<path d="M0 326.18 L70.51 326.18 A18 18 -180 0 0 88.51 308.18 L88.51 267.64" class="st13"/>
			</g>
		</g>
		<g id="group278-66" transform="translate(759.579,-172.95)">
			<title>Flowline2.278</title>
			<g id="shape279-67" transform="translate(-224.229,573.475) rotate(-161.666)">
				<title>Straight Edge.28</title>
				<desc>N</desc>
			</g>
			<g id="shape280-70" transform="translate(-317.174,344.18) rotate(-90)">
				<title>Straight Edge.29</title>
				<desc>N</desc>
			</g>
			<g id="shape278-73">
				<path d="M0 326.18 L0 290.4 A18 18 -180 0 0 -18 272.4 L-118.42 272.4" class="st13"/>
			</g>
		</g>
		<g id="group289-78" transform="translate(303.12,-64.8772)">
			<title>Flowline2.289</title>
			<g id="shape290-79" transform="translate(-251.174,249.407) rotate(-90)">
				<title>Straight Edge.28</title>
				<desc>N</desc>
			</g>
			<g id="shape291-82" transform="translate(-18.0036,9.00182)">
				<title>Straight Edge.29</title>
				<desc>N</desc>
			</g>
			<g id="shape289-85">
				<path d="M0 326.18 L48 326.18 A18 18 -180 0 0 66 308.18 L66 255.45" class="st13"/>
			</g>
		</g>
		<g id="group292-90" transform="translate(370.12,-179.695)">
			<title>Flowline2.292</title>
			<g id="shape293-91" transform="translate(-102.953,596.321) rotate(180)">
				<title>Straight Edge.28</title>
				<desc>N</desc>
			</g>
			<g id="shape294-94" transform="translate(-317.174,344.18) rotate(-90)">
				<title>Straight Edge.29</title>
				<desc>N</desc>
			</g>
			<g id="shape292-97">
				<path d="M0 326.18 L0 297.15 A18 18 -180 0 0 -18 279.15 L-96.91 279.15" class="st13"/>
			</g>
		</g>
		<g id="group299-102" transform="translate(58.12,-130.116)">
			<title>Flowline2.299</title>
			<g id="shape300-103" transform="translate(89.0945,74.2409)">
				<title>Straight Edge.28</title>
				<desc>N</desc>
			</g>
			<g id="shape301-106" transform="translate(317.174,308.172) rotate(90)">
				<title>Straight Edge.29</title>
				<desc>N</desc>
			</g>
			<g id="shape299-109">
				<path d="M0 326.18 L0 373.42 A18 18 -180 0 0 18 391.42 L83.05 391.42" class="st13"/>
			</g>
		</g>
		<g id="shape311-114" transform="translate(315.142,140.375) rotate(-90) scale(-1,1)">
			<title>Circular Arrow.311</title>
			<path d="M67.6 304.89 L91.48 292.82 L85.59 290.86 A40.1919 41.2636 -180 1 0 17.53 306.15 L27.35 296.74 A26.7686 27.4825
						 0 1 1 72.68 286.56 L66.78 284.59 L67.6 304.89 Z" class="st6"/>
		</g>
		<g id="group356-116" transform="translate(183.167,-193.475)">
			<title>Sheet.356</title>
			<g id="shape355-117" transform="translate(12,-12.5)">
				<title>Rectangle.355</title>
				<rect x="0" y="272.176" width="72" height="54" class="st7"/>
			</g>
			<g id="shape354-119" transform="translate(6,-6)">
				<title>Rectangle.259</title>
				<rect x="0" y="272.176" width="72" height="54" class="st7"/>
			</g>
			<g id="group350-121">
				<title>Sheet.350</title>
				<g id="shape348-122">
					<title>Rectangle.259</title>
					<rect x="0" y="272.176" width="72" height="54" class="st7"/>
				</g>
				<g id="shape349-124" transform="translate(8.5,-14.5)">
					<title>Sheet.349</title>
					<desc>Buffer pool</desc>
					<rect x="0" y="301.176" width="55" height="25" class="st15"/>
					<text x="4.69" y="316.68" class="st2">Buffer pool</text>				</g>
			</g>
		</g>
		<g id="group362-127" transform="translate(183.167,-220.475)">
			<title>Flowline2.362</title>
			<g id="shape363-128" transform="translate(188.127,373.034) rotate(90)">
				<title>Straight Edge.28</title>
				<desc>N</desc>
			</g>
			<g id="shape364-131" transform="translate(18.0036,643.35) rotate(180)">
				<title>Straight Edge.29</title>
				<desc>N</desc>
			</g>
			<g id="shape362-134">
				<path d="M0 326.18 L-111.05 326.18 A18 18 -180 0 0 -129.05 344.18 L-129.05 366.99" class="st13"/>
			</g>
		</g>
		<g id="group365-139" transform="translate(551.12,-193.475)">
			<title>Sheet.365</title>
			<g id="shape366-140" transform="translate(12,-12.5)">
				<title>Rectangle.355</title>
				<rect x="0" y="272.176" width="72" height="54" class="st7"/>
			</g>
			<g id="shape367-142" transform="translate(6,-6)">
				<title>Rectangle.259</title>
				<rect x="0" y="272.176" width="72" height="54" class="st7"/>
			</g>
			<g id="group368-144">
				<title>Sheet.368</title>
				<g id="shape369-145">
					<title>Rectangle.259</title>
					<rect x="0" y="272.176" width="72" height="54" class="st7"/>
				</g>
				<g id="shape370-147" transform="translate(8.5,-14.5)">
					<title>Sheet.370</title>
					<desc>Frame pool</desc>
					<rect x="0" y="301.176" width="55" height="25" class="st15"/>
					<text x="4.4" y="316.68" class="st2">Frame pool</text>				</g>
			</g>
		</g>
		<g id="group372-150" transform="translate(551.12,-220.475)">
			<title>Flowline2.372</title>
			<g id="shape373-151" transform="translate(14.7031,662.251) rotate(155.763)">
				<title>Straight Edge.28</title>
				<desc>N</desc>
			</g>
			<g id="shape374-154" transform="translate(18.0036,643.35) rotate(180)">
				<title>Straight Edge.29</title>
				<desc>N</desc>
			</g>
			<g id="shape372-157">
				<path d="M0 326.18 L-97.5 326.18 A18 18 -180 0 0 -115.5 344.18 L-115.5 366.99" class="st13"/>
			</g>
		</g>
		<g id="shape243-162" transform="translate(360.62,-255.301)">
			<title>Filled</title>
			<desc>Convert a buffer into frame (encode)</desc>
			<path d="M0 326.18 L85 326.18 L85 281.18 L0 281.18 L0 326.18 Z" class="st16"/>
			<path d="M42.5 326.18 L42.5 401.78" class="st3"/>
			<path d="M0 326.18 L85 326.18 L85 281.18 L0 281.18 L0 326.18" class="st3"/>
			<text x="9.21" y="294.68" class="st2">Convert a buffer <tspan x="21.14" dy="1.2em" class="st9">into frame </tspan><tspan
						x="24.49" dy="1.2em" class="st9">(</tspan>encode)</text>		</g>
	</g>
</svg>
