<?xml version="1.0" encoding="UTF-8" standalone="no"?>
<!DOCTYPE svg PUBLIC "-//W3C//DTD SVG 1.1//EN" "http://www.w3.org/Graphics/SVG/1.1/DTD/svg11.dtd">
<!-- Generated by Microsoft Visio, SVG Export gyro_event_handling.svg Page-1 -->
<svg xmlns="http://www.w3.org/2000/svg" xmlns:xlink="http://www.w3.org/1999/xlink" xmlns:ev="http://www.w3.org/2001/xml-events"
		width="7.49698in" height="9.76076in" viewBox="0 0 539.783 702.775" xml:space="preserve" color-interpolation-filters="sRGB"
		class="st13">
	<style type="text/css">
	<![CDATA[
		.st1 {fill:none;stroke:none;stroke-linecap:round;stroke-linejoin:round;stroke-width:1.2}
		.st2 {fill:#000000;font-family:Arial;font-size:0.833336em;font-weight:bold}
		.st3 {font-size:0.599989em;font-weight:normal}
		.st4 {fill:#b7d2ee;stroke:#b7d2ee;stroke-linecap:round;stroke-linejoin:round;stroke-width:1.2}
		.st5 {fill:#000000;font-family:Arial;font-size:0.666664em;font-weight:bold}
		.st6 {font-size:1em}
		.st7 {font-size:0.749991em;font-weight:normal}
		.st8 {fill:#b6bfc9;stroke:#b6bfc9;stroke-linecap:round;stroke-linejoin:round;stroke-width:1.2}
		.st9 {marker-end:url(#mrkr2-83);stroke:#000000;stroke-linecap:round;stroke-linejoin:round;stroke-width:1.2}
		.st10 {fill:#000000;fill-opacity:1;stroke:#000000;stroke-opacity:1;stroke-width:0.32258064516129}
		.st11 {fill:none;stroke:none;stroke-linecap:round;stroke-linejoin:round;stroke-width:0.72}
		.st12 {fill:#000000;font-family:Arial;font-size:0.499992em;font-weight:bold}
		.st13 {fill:none;fill-rule:evenodd;font-size:12px;overflow:visible;stroke-linecap:square;stroke-miterlimit:3}
	]]>
	</style>

	<defs id="Markers">
		<g id="lend2">
			<path d="M 1 1 L 0 0 L 1 -1 L 1 1 " style="stroke:none"/>
		</g>
		<marker id="mrkr2-83" class="st10" refX="-3.1" orient="auto" markerUnits="strokeWidth" overflow="visible">
			<use xlink:href="#lend2" transform="scale(-3.1,-3.1) "/>
		</marker>
	</defs>
	<g>
		<title>Page-1</title>
		<g id="shape174-1" transform="translate(91.3087,-666.742)">
			<title>Process.188</title>
			<desc>Gyroscope event handling m_gyro_read_evt_handler and m_gyro_e...</desc>
			<rect x="0" y="667.342" width="391.181" height="35.4331" rx="5.66929" ry="5.66929" class="st1"/>
			<text x="132.8" y="684.46" class="st2">Gyroscope event handling <tspan x="126.55" dy="1.4em" class="st3">m</tspan><tspan
						class="st3">_</tspan><tspan class="st3">gyro</tspan><tspan class="st3">_</tspan><tspan class="st3">read</tspan><tspan
						class="st3">_</tspan><tspan class="st3">evt</tspan><tspan class="st3">_</tspan><tspan class="st3">handler and m</tspan><tspan
						class="st3">_</tspan><tspan class="st3">gyro</tspan><tspan class="st3">_</tspan><tspan class="st3">evt</tspan><tspan
						class="st3">_</tspan><tspan class="st3">handler</tspan></text>		</g>
		<g id="shape57-19" transform="translate(298.238,-624.222)">
			<title>Terminator.57</title>
			<desc>Gyroscope read event m_gyro_evt_handler</desc>
			<path d="M14.17 702.77 L85.04 702.77 A14.1732 14.1732 -180 0 0 85.04 674.43 L14.17 674.43 A14.1732 14.1732 -180 1 0 14.17
						 702.77 Z" class="st4"/>
			<text x="28.71" y="682.6" class="st5">Gyroscope <tspan x="29.6" dy="1.2em" class="st6">read event </tspan><tspan
						x="22.26" dy="1.3em" class="st7">m</tspan><tspan class="st7">_</tspan><tspan class="st7">gyro</tspan><tspan
						class="st7">_</tspan><tspan class="st7">evt</tspan><tspan class="st7">_</tspan><tspan class="st7">handler</tspan></text>		</g>
		<g id="shape58-30" transform="translate(149.419,-360.883)">
			<title>Decision.58</title>
			<desc>Is calibration mode active?</desc>
			<path d="M9.99 669.37 L53.42 647.38 A5.66929 5.66929 0 0 1 58.55 647.38 L101.98 669.37 A5.66929 5.66929 0 0 1 101.98
						 679.49 L58.55 701.48 A5.66929 5.66929 0 0 1 53.42 701.48 L9.99 679.49 A5.66929 5.66929 0 0 1 9.99 669.37
						 Z" class="st8"/>
			<text x="31.31" y="672.03" class="st5">Is calibration <tspan x="30.42" dy="1.2em" class="st6">mode active</tspan>?</text>		</g>
		<g id="shape59-34" transform="translate(298.238,-502.994)">
			<title>Process.59</title>
			<desc>Process motion data AIR_MOTION_Process</desc>
			<rect x="0" y="674.428" width="99.2126" height="28.3465" rx="5.66929" ry="5.66929" class="st8"/>
			<text x="10.26" y="687.4" class="st5">Process motion data <tspan x="18.43" dy="1.3em" class="st7">AIR</tspan><tspan
						class="st7">_</tspan><tspan class="st7">MOTION</tspan><tspan class="st7">_</tspan><tspan class="st7">Process</tspan></text>		</g>
		<g id="shape61-42" transform="translate(291.86,-424.285)">
			<title>Decision.61</title>
			<desc>Are new gyroscope offsets available?</desc>
			<path d="M9.99 669.37 L53.42 647.38 A5.66929 5.66929 0 0 1 58.55 647.38 L101.98 669.37 A5.66929 5.66929 0 0 1 101.98
						 679.49 L58.55 701.48 A5.66929 5.66929 0 0 1 53.42 701.48 L9.99 679.49 A5.66929 5.66929 0 0 1 9.99 669.37
						 Z" class="st8"/>
			<text x="40.42" y="667.23" class="st5">Are new <tspan x="21.53" dy="1.2em" class="st6">gyroscope offsets </tspan><tspan
						x="36.64" dy="1.2em" class="st6">available</tspan>?</text>		</g>
		<g id="shape62-47" transform="translate(291.86,-298.238)">
			<title>Decision.62</title>
			<desc>Is new mouse motion vector available?</desc>
			<path d="M9.99 669.37 L53.42 647.38 A5.66929 5.66929 0 0 1 58.55 647.38 L101.98 669.37 A5.66929 5.66929 0 0 1 101.98
						 679.49 L58.55 701.48 A5.66929 5.66929 0 0 1 53.42 701.48 L9.99 679.49 A5.66929 5.66929 0 0 1 9.99 669.37
						 Z" class="st8"/>
			<text x="43.76" y="667.23" class="st5">Is new <tspan x="15.53" dy="1.2em" class="st6">mouse motion vector </tspan><tspan
						x="36.64" dy="1.2em" class="st6">available</tspan>?</text>		</g>
		<g id="shape70-52" transform="translate(291.86,-163.592)">
			<title>Decision.70</title>
			<desc>is gyroscope Polling enabled?</desc>
			<path d="M9.99 669.37 L53.42 647.38 A5.66929 5.66929 0 0 1 58.55 647.38 L101.98 669.37 A5.66929 5.66929 0 0 1 101.98
						 679.49 L58.55 701.48 A5.66929 5.66929 0 0 1 53.42 701.48 L9.99 679.49 A5.66929 5.66929 0 0 1 9.99 669.37
						 Z" class="st8"/>
			<text x="31.31" y="672.03" class="st5">is gyroscope <tspan x="23.98" dy="1.2em" class="st6">Polling enabled</tspan>?</text>		</g>
		<g id="shape71-56" transform="translate(376.191,-50.2063)">
			<title>Process.71</title>
			<desc>Schedule gyroscope read drv_gyro_schedule_read</desc>
			<rect x="0" y="674.428" width="99.2126" height="28.3465" rx="5.66929" ry="5.66929" class="st8"/>
			<text x="31.82" y="682.6" class="st5">Schedule <tspan x="19.82" dy="1.2em" class="st6">gyroscope read </tspan><tspan
						x="16.58" dy="1.3em" class="st7">drv</tspan><tspan class="st7">_</tspan><tspan class="st7">gyro</tspan><tspan
						class="st7">_</tspan><tspan class="st7">schedule</tspan><tspan class="st7">_</tspan><tspan class="st7">read</tspan></text>		</g>
		<g id="shape72-67" transform="translate(220.285,-50.2063)">
			<title>Process.72</title>
			<desc>Restart polling timer app_timer_start</desc>
			<rect x="0" y="674.428" width="99.2126" height="28.3465" rx="5.66929" ry="5.66929" class="st8"/>
			<text x="10.71" y="687.4" class="st5">Restart polling timer <tspan x="28.76" dy="1.3em" class="st7">app</tspan><tspan
						class="st7">_</tspan><tspan class="st7">timer</tspan><tspan class="st7">_</tspan><tspan class="st7">start</tspan></text>		</g>
		<g id="shape73-75" transform="translate(298.238,-0.6)">
			<title>Terminator.73</title>
			<desc>Return</desc>
			<path d="M14.17 702.77 L85.04 702.77 A14.1732 14.1732 -180 0 0 85.04 674.43 L14.17 674.43 A14.1732 14.1732 -180 1 0 14.17
						 702.77 Z" class="st4"/>
			<text x="36.72" y="691" class="st5">Return</text>		</g>
		<g id="shape75-78" transform="translate(396.947,-198.772)">
			<title>Dynamic connector.75</title>
			<path d="M0 709.61 L88.91 710.09" class="st9"/>
		</g>
		<g id="shape78-84" transform="translate(489.576,-567.529)">
			<title>Dynamic connector.78</title>
			<path d="M0 702.77 L0 1249.86 A5.66929 5.66929 0 0 1 -5.67 1255.53 L-88.41 1255.53" class="st9"/>
		</g>
		<g id="shape79-89" transform="translate(349.261,-145.923)">
			<title>Sheet.79</title>
			<desc>Yes</desc>
			<rect x="0" y="690.775" width="14.9606" height="12" class="st11"/>
			<text x="2.14" y="698.58" class="st12">Yes</text>		</g>
		<g id="shape80-92" transform="translate(400.234,-191.939)">
			<title>Sheet.80</title>
			<desc>No</desc>
			<rect x="0" y="690.775" width="14.9606" height="12" class="st11"/>
			<text x="3.48" y="698.58" class="st12">No</text>		</g>
		<g id="shape82-95" transform="translate(291.86,-553.356)">
			<title>Decision.82</title>
			<desc>Is remote still for prolonged time</desc>
			<path d="M9.99 669.37 L53.42 647.38 A5.66929 5.66929 0 0 1 58.55 647.38 L101.98 669.37 A5.66929 5.66929 0 0 1 101.98
						 679.49 L58.55 701.48 A5.66929 5.66929 0 0 1 53.42 701.48 L9.99 679.49 A5.66929 5.66929 0 0 1 9.99 669.37
						 Z" class="st8"/>
			<text x="30.2" y="672.03" class="st5">Is remote still <tspan x="20.65" dy="1.2em" class="st6">for prolonged time</tspan></text>		</g>
		<g id="shape83-99" transform="translate(439.97,-567.529)">
			<title>Process.83</title>
			<desc>Exit air motion mode gyro_toggle</desc>
			<rect x="0" y="674.428" width="99.2126" height="28.3465" rx="5.66929" ry="5.66929" class="st8"/>
			<text x="42.27" y="682.6" class="st5">Exit <tspan x="18.49" dy="1.2em" class="st6">air motion mode </tspan><tspan
						x="33.93" dy="1.3em" class="st7">gyro</tspan><tspan class="st7">_</tspan><tspan class="st7">toggle</tspan></text>		</g>
		<g id="shape84-106" transform="translate(298.238,-248.631)">
			<title>Process.84</title>
			<desc>Send mouse motion event app_sched_event_put</desc>
			<rect x="0" y="674.428" width="99.2126" height="28.3465" rx="5.66929" ry="5.66929" class="st8"/>
			<text x="25.82" y="682.6" class="st5">Send mouse <tspan x="24.72" dy="1.2em" class="st6">motion event </tspan><tspan
						x="20.08" dy="1.3em" class="st7">app</tspan><tspan class="st7">_</tspan><tspan class="st7">sched</tspan><tspan
						class="st7">_</tspan><tspan class="st7">event</tspan><tspan class="st7">_</tspan><tspan class="st7">put</tspan></text>		</g>
		<g id="shape85-117" transform="translate(155.797,-312.033)">
			<title>Process.85</title>
			<desc>Save computed offsets pstorage_update</desc>
			<rect x="0" y="674.428" width="99.2126" height="28.3465" rx="5.66929" ry="5.66929" class="st8"/>
			<text x="5.82" y="687.4" class="st5">Save computed offsets <tspan x="27.09" dy="1.3em" class="st7">pstorage</tspan><tspan
						class="st7">_</tspan><tspan class="st7">update</tspan></text>		</g>
		<g id="shape86-123" transform="translate(155.797,-248.631)">
			<title>Process.86</title>
			<desc>Exit calibration mode</desc>
			<rect x="0" y="674.428" width="99.2126" height="28.3465" rx="5.66929" ry="5.66929" class="st8"/>
			<text x="9.15" y="691" class="st5">Exit calibration mode</text>		</g>
		<g id="shape88-126" transform="translate(291.86,-84.9536)">
			<title>Decision.88</title>
			<desc>Is more data available?</desc>
			<path d="M9.99 669.37 L53.42 647.38 A5.66929 5.66929 0 0 1 58.55 647.38 L101.98 669.37 A5.66929 5.66929 0 0 1 101.98
						 679.49 L58.55 701.48 A5.66929 5.66929 0 0 1 53.42 701.48 L9.99 679.49 A5.66929 5.66929 0 0 1 9.99 669.37
						 Z" class="st8"/>
			<text x="32.42" y="672.03" class="st5">Is more data <tspan x="36.64" dy="1.2em" class="st6">available</tspan>?</text>		</g>
		<g id="shape90-130" transform="translate(354.931,-163.592)">
			<title>Dynamic connector.90</title>
			<path d="M-7.09 702.77 L-7.09 721" class="st9"/>
		</g>
		<g id="shape92-135" transform="translate(269.891,-50.2063)">
			<title>Dynamic connector.92</title>
			<path d="M0 702.77 L0 732.54 A5.66929 5.66929 -180 0 0 5.67 738.21 L24.63 738.21" class="st9"/>
		</g>
		<g id="shape112-140" transform="translate(354.931,-298.238)">
			<title>Dynamic connector.103</title>
			<path d="M-7.09 702.77 L-7.09 720.31" class="st9"/>
		</g>
		<g id="shape113-145" transform="translate(397.45,-574.616)">
			<title>Dynamic connector.113</title>
			<path d="M0 695.69 L38.8 695.69" class="st9"/>
		</g>
		<g id="shape116-150" transform="translate(432.883,-50.2063)">
			<title>Dynamic connector.116</title>
			<path d="M-7.09 702.77 L-7.09 734.43" class="st9"/>
		</g>
		<g id="shape119-155" transform="translate(198.317,-438.458)">
			<title>Dynamic connector.119</title>
			<path d="M7.09 702.77 L7.09 719.94" class="st9"/>
		</g>
		<g id="shape121-160" transform="translate(282.04,-115.072)">
			<title>Sheet.121</title>
			<desc>No</desc>
			<rect x="0" y="690.775" width="14.9606" height="12" class="st11"/>
			<text x="3.48" y="698.58" class="st12">No</text>		</g>
		<g id="shape122-163" transform="translate(398.716,-115.072)">
			<title>Sheet.122</title>
			<desc>Yes</desc>
			<rect x="0" y="690.775" width="14.9606" height="12" class="st11"/>
			<text x="2.14" y="698.58" class="st12">Yes</text>		</g>
		<g id="shape123-166" transform="translate(340.757,-248.631)">
			<title>Dynamic connector.123</title>
			<path d="M7.09 702.77 L7.09 727.4" class="st9"/>
		</g>
		<g id="shape161-171" transform="translate(255.009,-262.805)">
			<title>Dynamic connector.161</title>
			<path d="M0 702.77 L17.48 702.77 A5.66929 5.66929 -180 0 0 23.15 697.11 L23.15 580.1" class="st9"/>
		</g>
		<g id="shape162-176" transform="translate(212.49,-360.883)">
			<title>Dynamic connector.162</title>
			<path d="M-7.09 702.77 L-7.09 719.56" class="st9"/>
		</g>
		<g id="shape166-181" transform="translate(191.131,-454.143)">
			<title>Sheet.166</title>
			<desc>No</desc>
			<rect x="0" y="690.775" width="14.9606" height="12" class="st11"/>
			<text x="3.48" y="698.58" class="st12">No</text>		</g>
		<g id="shape167-184" transform="translate(347.844,-286.238)">
			<title>Sheet.167</title>
			<desc>Yes</desc>
			<rect x="0" y="690.775" width="14.9606" height="12" class="st11"/>
			<text x="2.14" y="698.58" class="st12">Yes</text>		</g>
		<g id="shape168-187" transform="translate(266.572,-454.143)">
			<title>Sheet.168</title>
			<desc>Yes</desc>
			<rect x="0" y="690.775" width="14.9606" height="12" class="st11"/>
			<text x="2.14" y="698.58" class="st12">Yes</text>		</g>
		<g id="shape169-190" transform="translate(397.45,-583.876)">
			<title>Sheet.169</title>
			<desc>Yes</desc>
			<rect x="0" y="690.775" width="14.9606" height="12" class="st11"/>
			<text x="2.14" y="698.58" class="st12">Yes</text>		</g>
		<g id="shape170-193" transform="translate(218.277,-454.143)">
			<title>Sheet.170</title>
			<desc>No</desc>
			<rect x="0" y="690.775" width="14.9606" height="12" class="st11"/>
			<text x="3.48" y="698.58" class="st12">No</text>		</g>
		<g id="shape171-196" transform="translate(254.222,-390.355)">
			<title>Sheet.171</title>
			<desc>No</desc>
			<rect x="0" y="690.775" width="14.9606" height="12" class="st11"/>
			<text x="3.48" y="698.58" class="st12">No</text>		</g>
		<g id="shape172-199" transform="translate(347.844,-413.797)">
			<title>Sheet.172</title>
			<desc>No</desc>
			<rect x="0" y="690.775" width="14.9606" height="12" class="st11"/>
			<text x="3.48" y="698.58" class="st12">No</text>		</g>
		<g id="shape173-202" transform="translate(207.918,-350.065)">
			<title>Sheet.173</title>
			<desc>Yes</desc>
			<rect x="0" y="690.775" width="14.9606" height="12" class="st11"/>
			<text x="2.14" y="698.58" class="st12">Yes</text>		</g>
		<g id="shape175-205" transform="translate(78.5528,-624.222)">
			<title>Terminator.44</title>
			<desc>Gyroscope read event m_gyro_read_handler</desc>
			<path d="M14.17 702.77 L85.04 702.77 A14.1732 14.1732 -180 0 0 85.04 674.43 L14.17 674.43 A14.1732 14.1732 -180 1 0 14.17
						 702.77 Z" class="st4"/>
			<text x="28.71" y="682.6" class="st5">Gyroscope <tspan x="29.6" dy="1.2em" class="st6">read event </tspan><tspan
						x="20.25" dy="1.3em" class="st7">m</tspan><tspan class="st7">_</tspan><tspan class="st7">gyro</tspan><tspan
						class="st7">_</tspan><tspan class="st7">read</tspan><tspan class="st7">_</tspan><tspan class="st7">handler</tspan></text>		</g>
		<g id="shape176-216" transform="translate(72.1748,-553.356)">
			<title>Decision.45</title>
			<desc>Is new data available?</desc>
			<path d="M9.99 669.37 L53.42 647.38 A5.66929 5.66929 0 0 1 58.55 647.38 L101.98 669.37 A5.66929 5.66929 0 0 1 101.98
						 679.49 L58.55 701.48 A5.66929 5.66929 0 0 1 53.42 701.48 L9.99 679.49 A5.66929 5.66929 0 0 1 9.99 669.37
						 Z" class="st8"/>
			<text x="34.42" y="672.03" class="st5">Is new data <tspan x="36.64" dy="1.2em" class="st6">available</tspan>?</text>		</g>
		<g id="shape177-220" transform="translate(156.506,-525.009)">
			<title>Process.46</title>
			<desc>Schedule main event handler app_sched_event_put</desc>
			<rect x="0" y="674.428" width="99.2126" height="28.3465" rx="5.66929" ry="5.66929" class="st8"/>
			<text x="31.82" y="682.6" class="st5">Schedule <tspan x="13.15" dy="1.2em" class="st6">main event handler </tspan><tspan
						x="20.08" dy="1.3em" class="st7">app</tspan><tspan class="st7">_</tspan><tspan class="st7">sched</tspan><tspan
						class="st7">_</tspan><tspan class="st7">event</tspan><tspan class="st7">_</tspan><tspan class="st7">put</tspan></text>		</g>
		<g id="shape178-231" transform="translate(0.6,-525.009)">
			<title>Process.47</title>
			<desc>Restart polling timer app_timer_start</desc>
			<rect x="0" y="674.428" width="99.2126" height="28.3465" rx="5.66929" ry="5.66929" class="st8"/>
			<text x="10.71" y="687.4" class="st5">Restart polling timer <tspan x="28.76" dy="1.3em" class="st7">app</tspan><tspan
						class="st7">_</tspan><tspan class="st7">timer</tspan><tspan class="st7">_</tspan><tspan class="st7">start</tspan></text>		</g>
		<g id="shape179-239" transform="translate(78.5528,-482.49)">
			<title>Terminator.48</title>
			<desc>Return</desc>
			<path d="M14.17 702.77 L85.04 702.77 A14.1732 14.1732 -180 0 0 85.04 674.43 L14.17 674.43 A14.1732 14.1732 -180 1 0 14.17
						 702.77 Z" class="st4"/>
			<text x="36.72" y="691" class="st5">Return</text>		</g>
		<g id="shape180-242" transform="translate(121.072,-624.222)">
			<title>Dynamic connector.49</title>
			<path d="M7.09 702.77 L7.09 713.23" class="st9"/>
		</g>
		<g id="shape181-247" transform="translate(177.261,-581.798)">
			<title>Dynamic connector.51</title>
			<path d="M0 702.77 L23.18 702.77 A5.66929 5.66929 0 0 1 28.85 708.44 L28.85 727.5" class="st9"/>
		</g>
		<g id="shape182-252" transform="translate(79.0563,-581.776)">
			<title>Dynamic connector.52</title>
			<path d="M0 702.77 L-23.18 702.77 A5.66929 5.66929 -180 0 0 -28.85 708.44 L-28.85 727.48" class="st9"/>
		</g>
		<g id="shape183-257" transform="translate(50.2063,-525.009)">
			<title>Dynamic connector.53</title>
			<path d="M0 702.77 L0 725.45 A5.66929 5.66929 -180 0 0 5.67 731.12 L24.63 731.12" class="st9"/>
		</g>
		<g id="shape184-262" transform="translate(206.112,-525.009)">
			<title>Dynamic connector.54</title>
			<path d="M0 702.77 L0 725.45 A5.66929 5.66929 0 0 1 -5.67 731.12 L-24.63 731.12" class="st9"/>
		</g>
		<g id="shape185-267" transform="translate(177.616,-581.702)">
			<title>Sheet.185</title>
			<desc>Yes</desc>
			<rect x="0" y="690.775" width="14.9606" height="12" class="st11"/>
			<text x="2.14" y="698.58" class="st12">Yes</text>		</g>
		<g id="shape186-270" transform="translate(63.8756,-581.608)">
			<title>Sheet.186</title>
			<desc>No</desc>
			<rect x="0" y="690.775" width="14.9606" height="12" class="st11"/>
			<text x="3.48" y="698.58" class="st12">No</text>		</g>
		<g id="shape196-273" transform="translate(340.757,-624.222)">
			<title>Dynamic connector.196</title>
			<path d="M7.09 702.77 L7.09 713.23" class="st9"/>
		</g>
		<g id="shape197-278" transform="translate(354.931,-553.356)">
			<title>Dynamic connector.197</title>
			<path d="M-7.09 702.77 L-7.09 721.07" class="st9"/>
		</g>
		<g id="shape198-283" transform="translate(340.757,-502.994)">
			<title>Dynamic connector.198</title>
			<path d="M7.09 702.77 L7.09 721.07" class="st9"/>
		</g>
		<g id="shape199-288" transform="translate(349.11,-541.356)">
			<title>Sheet.199</title>
			<desc>No</desc>
			<rect x="0" y="690.775" width="14.9606" height="12" class="st11"/>
			<text x="3.48" y="698.58" class="st12">No</text>		</g>
		<g id="shape200-291" transform="translate(155.797,-438.458)">
			<title>Process.200</title>
			<desc>Update Gyro Configuration</desc>
			<rect x="0" y="674.428" width="99.2126" height="28.3465" rx="5.66929" ry="5.66929" class="st8"/>
			<text x="25.6" y="686.2" class="st5">Update Gyro <tspan x="23.39" dy="1.2em" class="st6">Configuration</tspan></text>		</g>
		<g id="shape201-295" transform="translate(298.115,-445.545)">
			<title>Dynamic connector.201</title>
			<path d="M0 695.69 L-39.39 695.69" class="st9"/>
		</g>
		<g id="shape206-300" transform="translate(340.757,-424.285)">
			<title>Dynamic connector.206</title>
			<path d="M7.09 702.77 L7.09 768.41" class="st9"/>
		</g>
		<g id="shape207-305" transform="translate(198.317,-312.033)">
			<title>Dynamic connector.207</title>
			<path d="M7.09 702.77 L7.09 734.11" class="st9"/>
		</g>
		<g id="shape210-310" transform="translate(255.047,-381.86)">
			<title>Dynamic connector.210</title>
			<path d="M0 695.69 L89.08 695.69" class="st9"/>
		</g>
		<g id="shape226-315" transform="translate(396.947,-326.584)">
			<title>Dynamic connector.226</title>
			<path d="M0 702.77 L23.18 702.77 A5.66929 5.66929 0 0 1 28.85 708.44 L28.85 789.23 A5.66929 5.66929 0 0 1 23.18 794.9
						 L-45.38 794.9" class="st9"/>
		</g>
		<g id="shape227-320" transform="translate(397.45,-326.584)">
			<title>Sheet.227</title>
			<desc>No</desc>
			<rect x="0" y="690.775" width="14.9606" height="12" class="st11"/>
			<text x="3.48" y="698.58" class="st12">No</text>		</g>
		<g id="shape233-323" transform="translate(396.947,-113.3)">
			<title>Dynamic connector.233</title>
			<path d="M0 702.77 L23.18 702.77 A5.66929 5.66929 0 0 1 28.85 708.44 L28.85 733.8" class="st9"/>
		</g>
		<g id="shape234-328" transform="translate(298.744,-113.111)">
			<title>Dynamic connector.234</title>
			<path d="M0 702.77 L-23.18 702.77 A5.66929 5.66929 -180 0 0 -28.85 708.44 L-28.85 733.61" class="st9"/>
		</g>
	</g>
</svg>
