<?xml version="1.0" encoding="UTF-8" standalone="no"?>
<!DOCTYPE svg PUBLIC "-//W3C//DTD SVG 1.1//EN" "http://www.w3.org/Graphics/SVG/1.1/DTD/svg11.dtd">
<!-- Generated by Microsoft Visio, SVG Export nvs.svg Page-1 -->
<svg xmlns="http://www.w3.org/2000/svg" xmlns:xlink="http://www.w3.org/1999/xlink" xmlns:ev="http://www.w3.org/2001/xml-events"
		width="13.103in" height="7.52259in" viewBox="0 0 943.416 541.626" xml:space="preserve" color-interpolation-filters="sRGB"
		class="st12">
	<style type="text/css">
	<![CDATA[
		.st1 {fill:#e9e9e1;stroke:#000000;stroke-dasharray:7,5;stroke-linecap:round;stroke-linejoin:round;stroke-width:1}
		.st2 {fill:#c4dbf2;stroke:#b7d2ee;stroke-linecap:round;stroke-linejoin:round;stroke-width:0.72}
		.st3 {fill:#000000;font-family:Calibri;font-size:1.00001em}
		.st4 {font-size:1em}
		.st5 {fill:#000000;font-family:Calibri;font-size:1.00001em;font-style:italic}
		.st6 {font-size:1em;font-style:normal}
		.st7 {fill:none;stroke:none;stroke-linecap:round;stroke-linejoin:round;stroke-width:0.75}
		.st8 {fill:#000000;font-family:Calibri;font-size:1.16666em}
		.st9 {marker-end:url(#mrkr13-46);marker-start:url(#mrkr13-44);stroke:#000000;stroke-linecap:round;stroke-linejoin:round;stroke-width:0.75}
		.st10 {fill:#000000;fill-opacity:1;stroke:#000000;stroke-opacity:1;stroke-width:0.22935779816514}
		.st11 {marker-end:url(#mrkr13-46);stroke:#000000;stroke-linecap:round;stroke-linejoin:round;stroke-width:0.75}
		.st12 {fill:none;fill-rule:evenodd;font-size:12px;overflow:visible;stroke-linecap:square;stroke-miterlimit:3}
	]]>
	</style>

	<defs id="Markers">
		<g id="lend13">
			<path d="M 3 1 L 0 0 L 3 -1 L 3 1 " style="stroke:none"/>
		</g>
		<marker id="mrkr13-44" class="st10" refX="12.6" orient="auto" markerUnits="strokeWidth" overflow="visible">
			<use xlink:href="#lend13" transform="scale(4.36) "/>
		</marker>
		<marker id="mrkr13-46" class="st10" refX="-13.08" orient="auto" markerUnits="strokeWidth" overflow="visible">
			<use xlink:href="#lend13" transform="scale(-4.36,-4.36) "/>
		</marker>
	</defs>
	<g>
		<title>Page-1</title>
		<g id="group61-1" transform="translate(18,-81.7873)">
			<title>Sheet.61</title>
			<g id="shape57-2" transform="translate(632.017,-1.13687E-013)">
				<title>Box.57</title>
				<rect x="0" y="114.98" width="190.541" height="426.647" rx="5.66929" ry="5.66929" class="st1"/>
			</g>
			<g id="shape1-4" transform="translate(172.462,-3.24633)">
				<title>Box.83</title>
				<rect x="0" y="114.98" width="190.541" height="426.647" rx="5.66929" ry="5.66929" class="st1"/>
			</g>
			<g id="shape4-6" transform="translate(214.566,-209.181)">
				<title>Box.4</title>
				<desc>HID subsystem</desc>
				<rect x="0" y="400.791" width="108.36" height="140.835" rx="5.66929" ry="5.66929" class="st2"/>
				<text x="45.24" y="467.61" class="st3">HID <tspan x="28.33" dy="1.2em" class="st4">subsystem</tspan></text>			</g>
			<g id="shape2-10" transform="translate(25.7953,-120.404)">
				<title>Box.186</title>
				<desc>Bluetooth adapter</desc>
				<rect x="0" y="498.231" width="96.528" height="43.3957" rx="5.66929" ry="5.66929" class="st2"/>
				<text x="24.41" y="516.33" class="st5">Bluetooth <tspan x="29.12" dy="1.2em" class="st6">adapter</tspan></text>			</g>
			<g id="shape5-14" transform="translate(214.566,-29.4912)">
				<title>Box.5</title>
				<desc>Device Management</desc>
				<rect x="0" y="492.911" width="108.36" height="48.7148" rx="5.66929" ry="5.66929" class="st2"/>
				<text x="37.89" y="513.67" class="st3">Device <tspan x="21.4" dy="1.2em" class="st4">Management</tspan></text>			</g>
			<g id="shape6-18" transform="translate(214.566,-117.612)">
				<title>Box.6</title>
				<desc>Device driver</desc>
				<rect x="0" y="492.911" width="108.36" height="48.7148" rx="5.66929" ry="5.66929" class="st2"/>
				<text x="37.89" y="513.67" class="st3">Device <tspan x="39.77" dy="1.2em" class="st4">driver</tspan></text>			</g>
			<g id="shape15-22" transform="translate(230.459,-380.478)">
				<title>Sheet.15</title>
				<desc>Linux kernel</desc>
				<rect x="0" y="501.38" width="76.5732" height="40.2464" class="st7"/>
				<text x="23.35" y="517.3" class="st8">Linux <tspan x="20.41" dy="1.2em" class="st4">kernel</tspan></text>			</g>
			<g id="shape17-26" transform="translate(447.689,-286.363)">
				<title>Box.17</title>
				<desc>LibNVS</desc>
				<rect x="0" y="492.911" width="108.36" height="48.7148" rx="5.66929" ry="5.66929" class="st2"/>
				<text x="37.09" y="520.87" class="st3">LibNVS</text>			</g>
			<g id="shape18-29" transform="translate(447.689,-117.612)">
				<title>Box.18</title>
				<desc>BlueZ</desc>
				<rect x="0" y="412.282" width="108.36" height="129.344" rx="5.66929" ry="5.66929" class="st2"/>
				<text x="40.59" y="480.55" class="st3">BlueZ</text>			</g>
			<g id="shape19-32" transform="translate(447.689,-29.4912)">
				<title>Box.19</title>
				<desc>udev</desc>
				<rect x="0" y="492.911" width="108.36" height="48.7148" rx="5.66929" ry="5.66929" class="st2"/>
				<text x="42.18" y="520.87" class="st3">udev</text>			</g>
			<g id="shape21-35" transform="translate(447.689,-374.484)">
				<title>Box.21</title>
				<desc>Codec</desc>
				<rect x="0" y="492.911" width="108.36" height="48.7148" rx="5.66929" ry="5.66929" class="st2"/>
				<text x="39.14" y="520.87" class="st3">Codec</text>			</g>
			<g id="shape22-38" transform="translate(494.782,-374.484)">
				<title>Dynamic connector.219</title>
				<path d="M7.09 551.08 L7.09 551.44 L7.09 571.22" class="st9"/>
			</g>
			<g id="shape25-47" transform="translate(322.926,-317.85)">
				<title>Dynamic connector.25</title>
				<path d="M9.45 548.68 L9.81 548.68 L114.95 548.75" class="st9"/>
			</g>
			<g id="shape27-54" transform="translate(322.926,-234.908)">
				<title>Dynamic connector.27</title>
				<path d="M9.45 548.71 L9.81 548.71 L114.14 548.71" class="st9"/>
			</g>
			<g id="shape33-61" transform="translate(322.926,-46.762)">
				<title>Dynamic connector.33</title>
				<path d="M9.45 534.54 L9.81 534.54 L114.95 534.54" class="st9"/>
			</g>
			<g id="shape35-68" transform="translate(122.323,-149.122)">
				<title>Dynamic connector.35</title>
				<path d="M9.45 548.65 L9.81 548.65 L10.63 548.65 L10.63 548.78 L82.43 548.78" class="st9"/>
			</g>
			<g id="shape36-75" transform="translate(322.926,-134.883)">
				<title>Dynamic connector.36</title>
				<path d="M9.45 534.54 L9.81 534.54 L113.99 534.54" class="st9"/>
			</g>
			<g id="shape37-82" transform="translate(673.108,-29.4912)">
				<title>Box.37</title>
				<desc>NVS Detect Plugin</desc>
				<rect x="0" y="492.911" width="108.36" height="48.7148" rx="5.66929" ry="5.66929" class="st2"/>
				<text x="26.57" y="513.67" class="st3">NVS Detect <tspan x="39.2" dy="1.2em" class="st4">Plugin</tspan></text>			</g>
			<g id="shape38-86" transform="translate(556.048,-46.762)">
				<title>Dynamic connector.38</title>
				<path d="M9.45 534.54 L9.81 534.54 L107.25 534.54" class="st9"/>
			</g>
			<g id="shape39-93" transform="translate(690.21,-294.052)">
				<title>Box.39</title>
				<desc>NVS Plugin</desc>
				<rect x="0" y="508.289" width="74.154" height="33.3371" rx="5.66929" ry="5.66929" class="st2"/>
				<text x="27.04" y="521.36" class="st3">NVS <tspan x="22.09" dy="1.2em" class="st4">Plugin</tspan></text>			</g>
			<g id="shape41-97" transform="translate(364.845,-317.119)">
				<title>Sheet.41</title>
				<desc>HIDRAW interface</desc>
				<rect x="0" y="508.971" width="76.5732" height="32.6556" class="st7"/>
				<text x="17.28" y="521.7" class="st3">HIDRAW <tspan x="16.44" dy="1.2em" class="st4">interface</tspan></text>			</g>
			<g id="shape42-101" transform="translate(358.166,-234.961)">
				<title>Sheet.42</title>
				<desc>Userspace HID device</desc>
				<rect x="0" y="513.557" width="84.9151" height="28.0689" class="st7"/>
				<text x="17.29" y="523.99" class="st3">Userspace <tspan x="16.41" dy="1.2em" class="st4">HID device</tspan></text>			</g>
			<g id="shape43-105" transform="translate(363.527,-147.048)">
				<title>Sheet.43</title>
				<desc>Driver interface</desc>
				<rect x="0" y="512.401" width="74.1914" height="29.2255" class="st7"/>
				<text x="22.15" y="523.41" class="st3">Driver <tspan x="15.25" dy="1.2em" class="st4">interface</tspan></text>			</g>
			<g id="shape44-109" transform="translate(369.303,-51.5474)">
				<title>Sheet.44</title>
				<desc>uevent</desc>
				<rect x="0" y="512.401" width="62.6393" height="29.2255" class="st7"/>
				<text x="14.32" y="530.61" class="st3">uevent</text>			</g>
			<g id="shape46-112" transform="translate(556.048,-303.634)">
				<title>Dynamic connector.46</title>
				<path d="M9.45 534.54 L9.81 534.54 L124.35 534.54" class="st9"/>
			</g>
			<g id="shape47-119" transform="translate(562.319,-314.807)">
				<title>Sheet.47</title>
				<desc>LibNVS API</desc>
				<rect x="0" y="512.229" width="76.5732" height="29.3973" class="st7"/>
				<text x="21.2" y="523.33" class="st3">LibNVS <tspan x="30.2" dy="1.2em" class="st4">API</tspan></text>			</g>
			<g id="shape51-123" transform="translate(851.649,-300.662)">
				<title>Sheet.51</title>
				<desc>Audio Stream</desc>
				<rect x="0" y="521.509" width="45.315" height="20.1176" class="st7"/>
				<text x="8.34" y="527.97" class="st3">Audio <tspan x="5.15" dy="1.2em" class="st4">Stream</tspan></text>			</g>
			<g id="shape52-127" transform="translate(764.364,-303.634)">
				<title>Dynamic connector.52</title>
				<path d="M0 534.54 L73 534.54" class="st11"/>
			</g>
			<g id="shape53-132" transform="translate(720.201,-78.206)">
				<title>Dynamic connector.53</title>
				<path d="M7.09 532.18 L7.09 531.82 L7.09 335.59" class="st9"/>
			</g>
			<g id="shape55-139" transform="translate(673.108,-379.011)">
				<title>Sheet.55</title>
				<desc>PulseAudio Sound Server</desc>
				<rect x="0" y="501.38" width="108.36" height="40.2464" class="st7"/>
				<text x="22.36" y="517.3" class="st8">PulseAudio <tspan x="16.43" dy="1.2em" class="st4">Sound Server</tspan></text>			</g>
			<g id="shape59-143" transform="translate(553.315,-58.8629)">
				<title>Sheet.59</title>
				<desc>udev notification</desc>
				<rect x="0" y="512.401" width="84.9151" height="29.2255" class="st7"/>
				<text x="30.46" y="523.41" class="st3">udev <tspan x="14.43" dy="1.2em" class="st4">notification</tspan></text>			</g>
		</g>
	</g>
</svg>
